<svg id="svg" version="1.1" width="400" height="400" viewBox="0 0 400 400" xmlns="http://www.w3.org/2000/svg" xmlns:xlink="http://www.w3.org/1999/xlink"><g id="svgg"><path id="path0" d="M191.327 41.805 C 172.054 43.189,153.306 50.568,141.640 61.362 C 140.477 62.437,138.315 64.250,136.835 65.391 C 117.250 80.478,105.584 104.717,105.582 130.323 L 105.582 134.809 104.655 135.697 C 102.186 138.063,101.443 141.843,102.319 147.585 L 102.911 151.469 101.095 153.614 C 92.124 164.207,93.938 174.492,105.476 178.443 C 110.036 180.005,109.445 180.051,111.499 177.974 L 113.331 176.123 112.088 175.914 C 97.892 173.523,95.486 165.653,105.577 154.612 L 107.186 152.851 106.544 148.914 C 105.444 142.176,105.681 140.632,108.235 137.886 L 109.650 136.364 109.826 128.708 C 110.385 104.411,120.696 83.231,138.796 69.201 C 140.254 68.070,142.529 66.136,143.850 64.902 C 159.734 50.068,186.576 42.905,212.542 46.570 C 226.293 48.511,232.087 51.456,236.384 58.689 C 237.467 60.512,238.000 61.052,239.702 62.047 C 240.817 62.699,242.752 64.002,244.001 64.941 L 246.271 66.650 247.777 66.059 C 254.871 63.274,262.237 63.274,268.227 66.060 C 284.289 73.532,290.057 98.322,279.467 114.372 L 277.628 117.158 278.262 119.308 L 278.895 121.458 280.675 122.177 C 287.886 125.086,298.563 131.273,302.296 134.705 C 308.890 140.766,301.052 146.322,279.027 151.198 L 275.917 151.887 275.910 154.492 C 275.905 156.060,275.575 158.622,275.081 160.925 C 274.343 164.370,274.235 165.775,274.008 174.960 C 273.869 180.574,273.572 186.812,273.347 188.823 L 272.938 192.478 275.305 194.677 C 283.621 202.403,286.740 203.240,305.742 202.848 C 312.103 202.717,312.930 202.881,315.836 204.853 C 324.919 211.019,315.381 225.837,302.331 225.837 L 300.170 225.837 299.347 227.461 C 293.679 238.648,267.683 245.180,244.060 241.355 L 239.477 240.612 239.658 242.147 C 240.335 247.857,245.550 254.392,255.788 262.357 C 272.264 275.174,280.076 286.687,283.541 303.259 L 284.127 306.061 284.372 303.196 C 285.754 287.041,278.455 274.152,259.982 260.128 C 252.307 254.301,244.392 246.563,245.336 245.809 C 245.401 245.757,247.249 245.899,249.442 246.124 C 271.757 248.415,293.945 242.023,301.840 231.029 C 302.749 229.763,302.924 229.665,304.287 229.665 C 315.974 229.665,326.693 215.983,322.383 206.568 C 319.408 200.070,313.013 197.737,301.276 198.868 C 292.053 199.756,287.139 198.667,281.180 194.411 C 277.604 191.857,277.062 191.086,277.332 188.932 C 277.460 187.914,277.680 182.344,277.821 176.555 C 278.038 167.667,278.182 165.566,278.746 163.057 C 279.114 161.422,279.507 158.970,279.621 157.606 L 279.828 155.128 283.853 154.237 C 300.195 150.620,308.428 145.437,308.443 138.756 C 308.454 133.576,302.854 128.653,289.155 121.802 C 281.810 118.129,281.917 118.232,283.235 116.090 C 287.227 109.601,289.516 99.373,288.691 91.709 C 286.206 68.622,267.615 54.785,248.323 61.662 L 247.044 62.118 243.718 59.920 C 241.252 58.289,240.189 57.373,239.605 56.372 C 237.263 52.363,233.702 48.922,229.930 47.022 C 221.755 42.905,205.878 40.759,191.327 41.805 M188.843 51.393 C 185.792 51.663,179.257 52.840,178.952 53.174 C 178.862 53.273,179.362 53.245,180.064 53.111 C 181.840 52.772,193.687 52.904,196.013 53.288 C 200.436 54.020,204.696 55.272,206.269 56.303 C 208.186 57.559,212.739 65.670,215.680 73.068 C 216.960 76.289,217.711 77.555,217.322 75.837 C 216.350 71.548,213.470 63.752,211.622 60.410 C 211.029 59.337,210.393 58.065,210.210 57.583 L 209.877 56.706 216.501 56.861 C 227.664 57.123,229.517 58.363,234.633 68.991 C 235.247 70.266,235.663 70.783,235.978 70.662 C 236.308 70.536,236.375 70.643,236.221 71.049 C 236.068 71.450,236.106 71.513,236.351 71.270 C 237.403 70.227,231.103 58.788,228.299 56.650 C 222.848 52.493,204.301 50.021,188.843 51.393 M173.628 61.912 C 158.741 63.647,144.370 71.022,133.863 82.319 C 130.581 85.848,127.814 89.538,128.101 90.002 C 128.233 90.216,128.189 90.283,127.995 90.164 C 127.812 90.050,127.430 90.310,127.148 90.741 C 126.543 91.665,126.492 91.992,127.003 91.676 C 127.233 91.534,127.285 91.589,127.140 91.822 C 127.014 92.027,126.786 92.119,126.634 92.025 C 126.225 91.772,122.704 98.155,122.929 98.741 C 123.033 99.013,122.996 99.160,122.847 99.068 C 122.531 98.873,121.031 102.035,119.634 105.843 C 117.106 112.732,115.406 122.618,115.519 129.779 C 115.562 132.562,115.590 132.401,115.813 128.083 C 116.090 122.712,116.981 116.198,117.481 115.889 C 117.680 115.766,117.735 115.885,117.619 116.188 C 117.422 116.700,116.925 120.017,116.480 123.785 C 116.241 125.814,116.261 125.904,117.130 126.701 C 118.220 127.700,118.205 127.743,118.506 122.967 C 119.751 103.204,131.509 83.765,148.370 73.591 C 168.117 61.676,195.134 64.164,209.649 79.236 C 210.833 80.465,211.802 81.381,211.802 81.271 C 211.802 80.450,207.438 75.008,203.929 71.455 C 199.866 67.340,199.286 66.704,200.000 67.145 C 200.175 67.254,200.319 67.264,200.319 67.169 C 200.319 67.074,199.604 66.634,198.730 66.191 C 191.493 62.524,182.109 60.924,173.628 61.912 M268.581 76.336 C 268.581 76.391,269.047 76.857,269.617 77.373 L 270.654 78.309 269.717 77.273 C 268.844 76.306,268.581 76.089,268.581 76.336 M255.949 77.960 C 245.903 83.029,244.246 98.685,252.791 107.785 C 254.019 109.093,254.809 110.044,254.545 109.899 C 254.156 109.685,254.142 109.716,254.466 110.065 C 254.685 110.301,254.864 110.753,254.864 111.069 C 254.864 111.514,255.119 111.643,256.000 111.643 C 256.652 111.643,257.054 111.511,256.944 111.333 C 256.839 111.163,257.368 111.242,258.121 111.508 C 269.213 115.427,277.885 99.098,271.960 85.452 C 271.796 85.076,272.002 84.830,272.733 84.527 C 273.579 84.177,273.701 83.990,273.545 83.285 L 273.360 82.456 273.830 83.254 C 274.088 83.692,274.305 83.899,274.311 83.713 C 274.360 82.255,273.283 82.230,272.182 83.665 L 271.499 84.555 270.483 83.077 C 269.924 82.265,269.016 81.075,268.465 80.433 C 267.915 79.791,267.751 79.477,268.102 79.735 C 268.648 80.136,268.638 80.089,268.033 79.407 L 267.325 78.609 267.984 78.198 C 268.346 77.972,268.564 77.708,268.467 77.611 C 268.371 77.515,268.066 77.662,267.789 77.939 C 267.499 78.229,267.054 78.355,266.737 78.236 C 266.264 78.059,266.247 78.102,266.612 78.551 C 266.858 78.854,266.263 78.654,265.188 78.072 C 262.231 76.470,258.980 76.431,255.949 77.960 M248.485 79.745 C 248.110 80.271,247.875 80.702,247.963 80.702 C 248.051 80.702,248.429 80.271,248.804 79.745 C 249.179 79.219,249.413 78.788,249.326 78.788 C 249.238 78.788,248.860 79.219,248.485 79.745 M239.315 89.793 C 239.318 90.494,239.384 90.744,239.460 90.347 C 239.536 89.950,239.533 89.376,239.454 89.071 C 239.374 88.766,239.311 89.091,239.315 89.793 M244.445 93.461 C 244.445 94.777,244.502 95.315,244.570 94.657 C 244.639 93.999,244.639 92.923,244.570 92.265 C 244.502 91.607,244.445 92.145,244.445 93.461 M122.158 101.227 C 121.797 102.043,121.434 102.711,121.352 102.711 C 121.271 102.711,121.434 102.173,121.715 101.515 C 121.997 100.857,122.303 100.133,122.397 99.906 C 122.490 99.680,122.623 99.550,122.691 99.618 C 122.759 99.686,122.519 100.410,122.158 101.227 M263.238 112.192 C 262.667 112.263,262.201 112.456,262.201 112.620 C 262.201 113.058,263.198 112.964,264.115 112.440 C 264.553 112.189,264.769 112.002,264.593 112.024 C 264.418 112.046,263.808 112.122,263.238 112.192 M273.856 125.060 C 274.040 125.358,273.943 125.410,273.497 125.253 C 272.402 124.869,274.340 126.316,276.074 127.176 C 280.718 129.483,284.476 132.043,282.536 131.579 C 282.141 131.484,280.167 131.263,278.150 131.086 C 276.132 130.910,272.759 130.606,270.654 130.412 C 265.176 129.906,247.990 129.912,234.609 130.423 C 225.558 130.769,221.842 130.784,217.065 130.495 C 205.225 129.779,204.505 129.764,205.582 130.260 C 208.593 131.646,227.097 132.273,240.749 131.452 C 248.904 130.961,269.671 131.128,276.077 131.737 C 281.362 132.238,289.726 133.599,292.584 134.422 C 294.548 134.988,294.508 134.924,291.946 133.409 C 285.354 129.511,273.116 123.863,273.856 125.060 M185.646 138.317 C 168.372 139.411,150.201 144.744,136.045 152.874 C 129.181 156.816,128.452 157.721,123.919 167.943 C 117.520 182.371,109.658 188.771,98.246 188.841 L 95.534 188.858 97.458 190.681 C 102.579 195.533,109.835 196.602,117.158 193.582 C 119.905 192.449,119.939 192.477,118.258 194.482 C 117.514 195.369,115.470 197.861,113.716 200.019 C 110.437 204.054,107.003 207.267,104.076 209.039 C 102.044 210.270,102.030 210.359,103.810 210.807 C 108.956 212.103,115.501 210.329,119.958 206.430 C 121.882 204.747,122.074 204.830,121.226 206.981 C 117.556 216.294,119.728 227.352,127.279 237.799 C 130.200 241.841,131.333 243.129,140.186 252.472 C 144.175 256.683,148.965 261.875,150.830 264.011 L 154.220 267.895 157.253 268.430 C 185.361 273.392,202.175 284.250,208.759 301.693 C 209.871 304.637,209.695 304.837,208.222 302.303 C 204.649 296.160,196.455 288.311,189.060 283.950 C 179.265 278.174,169.406 275.272,147.687 271.772 C 125.985 268.274,115.530 264.328,107.879 256.747 C 105.720 254.608,102.392 249.847,102.392 248.897 C 102.392 247.537,100.325 250.469,98.865 253.901 C 92.803 268.146,99.979 286.171,115.949 296.815 C 119.236 299.007,125.494 302.392,126.256 302.392 C 126.443 302.392,126.685 302.534,126.792 302.708 C 127.043 303.113,124.100 302.853,119.458 302.059 C 112.921 300.940,106.129 298.511,101.242 295.544 C 98.320 293.771,98.416 293.715,99.393 296.615 C 105.681 315.288,127.868 332.016,149.609 334.476 C 152.574 334.812,151.554 335.149,145.774 335.743 C 140.341 336.301,134.726 336.228,130.478 335.544 C 127.824 335.117,127.817 335.207,130.361 337.252 C 151.876 354.553,189.524 359.097,213.850 347.327 C 216.474 346.058,216.391 346.250,212.880 349.573 C 207.613 354.557,197.510 360.766,194.667 360.766 C 194.442 360.766,194.258 360.909,194.258 361.085 C 194.258 361.282,195.948 361.404,198.690 361.404 C 221.953 361.404,243.780 351.023,255.365 334.450 C 257.104 331.962,261.244 324.057,261.244 323.224 C 261.244 322.995,261.379 322.807,261.543 322.807 C 261.707 322.807,261.785 323.274,261.715 323.844 C 261.645 324.414,261.513 326.388,261.421 328.230 C 261.226 332.135,259.705 338.615,257.942 343.056 C 256.569 346.513,256.530 346.458,259.045 344.609 C 271.769 335.253,279.050 318.732,277.054 303.747 C 275.097 289.053,268.134 278.300,252.791 266.280 C 243.993 259.387,240.463 255.926,237.550 251.339 C 235.607 248.281,234.225 244.561,233.875 241.453 L 233.652 239.476 228.868 238.274 C 200.683 231.193,186.762 222.327,186.762 211.459 L 186.762 208.689 185.370 209.687 C 184.604 210.236,183.782 210.964,183.543 211.305 C 182.835 212.314,182.797 211.756,183.455 210.002 C 185.946 203.360,192.974 201.352,203.349 204.317 C 215.298 207.731,224.894 203.002,231.849 190.271 C 238.189 178.667,242.056 176.527,250.042 180.206 C 253.289 181.701,253.552 181.693,255.542 180.031 C 257.309 178.554,257.935 178.246,259.162 178.246 L 260.192 178.246 260.389 174.051 C 260.864 163.937,262.917 155.689,265.956 151.682 C 267.377 149.810,269.092 148.561,269.894 148.816 C 270.683 149.066,269.714 145.556,268.029 142.053 L 266.826 139.553 263.955 139.290 C 260.043 138.931,242.006 139.284,234.769 139.862 C 225.616 140.592,218.929 140.484,207.390 139.418 C 197.589 138.512,189.241 138.090,185.646 138.317 M201.390 142.745 C 204.540 143.347,208.118 144.886,211.193 146.961 C 213.777 148.705,215.002 149.723,220.228 154.467 C 224.973 158.775,228.634 160.702,230.340 159.789 C 231.339 159.254,231.075 160.264,229.911 161.427 C 225.940 165.398,221.318 164.045,212.173 156.235 C 201.540 147.153,190.722 145.168,182.219 150.739 C 180.613 151.791,181.250 150.881,183.823 148.445 C 189.264 143.295,194.829 141.489,201.390 142.745 M112.744 154.132 C 112.051 154.869,111.764 155.264,112.107 155.009 C 112.667 154.593,112.656 154.669,112.002 155.742 C 110.981 157.415,111.344 157.231,112.948 155.263 C 113.699 154.342,114.114 153.768,113.871 153.987 C 113.056 154.722,112.798 154.396,113.557 153.589 C 113.969 153.150,114.238 152.791,114.155 152.791 C 114.073 152.791,113.438 153.394,112.744 154.132 M268.390 155.558 C 267.799 156.203,266.850 157.630,266.280 158.729 L 265.244 160.728 265.918 161.464 C 268.992 164.823,270.195 176.174,268.245 183.403 L 267.549 185.981 268.451 187.329 L 269.353 188.676 269.609 187.400 C 269.750 186.699,269.976 180.885,270.110 174.482 C 270.245 168.078,270.461 162.669,270.591 162.460 C 270.927 161.920,271.422 156.288,271.224 155.254 C 270.976 153.955,269.737 154.088,268.390 155.558 M207.064 155.969 C 223.779 161.135,222.293 191.820,205.275 192.912 C 192.440 193.736,183.760 177.503,190.287 164.882 C 190.550 164.373,190.640 163.955,190.485 163.955 C 190.139 163.955,187.173 167.066,186.686 167.940 C 185.948 169.263,186.025 168.161,186.785 166.520 C 190.675 158.126,199.382 153.595,207.064 155.969 M109.236 159.091 C 108.631 159.749,108.136 160.162,108.135 160.009 C 108.135 159.856,107.912 159.915,107.641 160.140 C 107.370 160.365,107.221 160.739,107.311 160.972 C 107.400 161.205,107.310 161.362,107.110 161.320 C 106.910 161.278,106.401 161.890,105.980 162.679 C 105.558 163.469,105.427 163.854,105.688 163.535 C 105.949 163.217,106.283 162.930,106.430 162.897 C 106.875 162.801,110.913 157.895,110.548 157.895 C 110.431 157.895,109.840 158.433,109.236 159.091 M196.840 164.647 C 193.622 166.848,193.036 171.728,195.672 174.364 C 199.806 178.499,205.045 172.120,202.186 166.432 C 201.049 164.172,198.687 163.383,196.840 164.647 M263.464 168.938 C 262.506 171.842,263.317 176.497,264.597 175.435 C 265.400 174.769,265.847 171.855,265.412 170.127 C 264.761 167.543,264.065 167.118,263.464 168.938 M258.010 183.120 L 257.257 183.783 258.045 183.279 C 259.000 182.669,259.688 182.602,258.873 183.199 C 258.323 183.601,258.335 183.655,259.098 184.256 C 259.541 184.604,260.725 186.531,261.730 188.537 C 268.701 202.456,280.239 210.395,291.099 208.747 C 295.120 208.137,297.124 208.352,294.182 209.078 C 292.475 209.499,273.684 218.501,274.512 218.501 C 274.690 218.501,276.111 217.987,277.670 217.358 C 296.945 209.586,311.063 207.582,313.890 212.218 L 314.511 213.238 314.512 212.011 C 314.516 207.897,309.934 206.372,300.961 207.500 C 284.825 209.530,272.417 202.468,263.058 185.929 C 261.370 182.946,259.431 181.867,258.010 183.120 M244.817 183.403 L 246.730 183.605 245.001 183.748 C 242.616 183.946,242.542 184.574,244.883 184.747 C 246.200 184.845,247.652 185.308,249.944 186.361 C 251.711 187.174,253.577 187.931,254.090 188.044 L 255.024 188.249 253.858 187.130 C 253.216 186.515,252.774 185.929,252.874 185.829 C 252.975 185.728,252.854 185.644,252.605 185.642 C 252.356 185.641,250.933 185.068,249.442 184.370 C 247.140 183.293,246.441 183.109,244.817 183.151 L 242.903 183.201 244.817 183.403 M249.280 184.685 C 249.396 184.873,249.253 184.915,248.928 184.791 C 248.559 184.649,248.455 184.701,248.609 184.950 C 248.760 185.196,248.662 185.252,248.315 185.119 C 247.898 184.959,247.878 184.865,248.219 184.649 C 248.780 184.294,249.044 184.303,249.280 184.685 M137.507 292.050 C 144.682 308.410,163.715 322.009,181.721 323.641 C 186.626 324.085,184.562 324.502,178.438 324.303 C 154.650 323.531,135.878 307.402,134.745 286.762 L 134.596 284.051 135.382 286.523 C 135.814 287.882,136.770 290.369,137.507 292.050 " stroke="none" fill="#ffffff" fill-rule="evenodd"></path><path id="path1" d="M0.000 200.000 L 0.000 400.000 200.000 400.000 L 400.000 400.000 400.000 200.000 L 400.000 0.000 200.000 0.000 L 0.000 0.000 0.000 200.000 M209.888 41.821 C 226.408 43.618,234.820 47.648,239.619 56.064 C 240.361 57.367,241.015 58.000,242.537 58.892 C 243.615 59.524,245.029 60.462,245.679 60.976 L 246.860 61.912 249.506 61.110 C 262.441 57.190,274.420 61.571,282.323 73.111 C 290.791 85.474,291.358 102.943,283.705 115.652 C 282.235 118.094,282.313 118.207,286.996 120.415 C 298.820 125.988,307.049 132.112,308.278 136.252 C 310.608 144.096,302.816 150.035,284.478 154.392 L 280.120 155.428 279.905 157.698 C 279.786 158.947,279.398 161.260,279.041 162.839 C 278.503 165.222,278.347 167.496,278.123 176.236 C 277.975 182.026,277.719 187.624,277.555 188.676 L 277.257 190.590 278.581 191.971 C 283.070 196.657,290.469 199.395,297.346 198.916 C 313.679 197.780,318.876 199.247,322.273 205.951 C 327.183 215.640,316.400 229.984,304.206 229.984 C 302.924 229.984,302.692 230.099,302.117 231.021 C 295.502 241.630,271.720 248.689,250.262 246.412 C 247.819 246.152,245.777 245.982,245.726 246.034 C 244.984 246.776,252.276 253.994,258.852 259.028 C 279.175 274.585,286.677 287.763,284.627 304.306 C 284.313 306.840,283.800 306.990,283.538 304.625 C 281.980 290.527,272.091 275.199,257.056 263.579 C 246.263 255.237,241.792 250.231,239.896 244.365 C 238.977 241.521,238.996 240.124,239.952 240.345 C 263.397 245.759,292.397 239.324,299.203 227.196 L 300.000 225.775 302.363 225.637 C 319.737 224.619,325.996 204.749,309.531 202.883 C 307.879 202.696,305.761 202.725,303.349 202.967 C 289.610 204.348,280.884 201.491,273.749 193.277 L 272.758 192.136 273.215 187.854 C 273.475 185.417,273.674 180.320,273.678 176.020 C 273.684 168.141,273.933 165.271,274.998 160.807 C 275.373 159.231,275.659 156.817,275.696 154.913 L 275.758 151.689 277.671 151.285 C 299.357 146.710,307.828 141.443,302.851 135.629 C 300.089 132.402,290.348 126.555,281.000 122.511 L 278.587 121.468 278.062 119.231 L 277.537 116.993 278.757 115.195 C 292.673 94.687,280.557 64.144,258.495 64.117 C 255.675 64.114,251.468 64.921,248.647 66.007 L 246.199 66.950 244.484 65.553 C 243.540 64.784,241.547 63.409,240.055 62.498 C 237.646 61.025,237.199 60.598,236.059 58.679 C 233.345 54.110,229.761 51.109,225.261 49.635 C 198.675 40.930,161.825 47.791,144.338 64.704 C 143.285 65.722,140.991 67.687,139.238 69.070 C 119.807 84.407,108.386 109.441,109.951 133.269 L 110.147 136.242 108.696 137.738 C 105.862 140.662,105.625 142.121,106.820 149.274 L 107.432 152.934 105.708 154.797 C 95.814 165.483,98.198 173.311,112.041 175.590 C 113.609 175.848,113.558 176.118,111.544 178.214 L 109.850 179.976 107.332 179.285 C 93.974 175.621,91.242 164.594,100.932 153.450 C 101.956 152.272,102.658 151.184,102.578 150.898 C 102.437 150.390,101.947 147.169,101.591 144.409 C 101.226 141.587,102.329 138.038,104.262 135.814 L 105.171 134.769 105.366 128.070 C 106.096 102.954,116.998 80.967,136.364 65.552 C 138.118 64.155,140.571 62.076,141.814 60.932 C 157.396 46.592,184.303 39.039,209.888 41.821 M209.410 51.177 C 226.074 53.154,229.458 55.121,234.914 66.000 C 237.653 71.461,237.631 70.857,235.150 72.460 C 227.052 77.690,222.010 86.882,222.010 96.413 L 222.010 99.765 218.900 99.982 C 184.860 102.366,142.637 115.541,118.570 131.291 C 116.853 132.414,115.382 133.333,115.300 133.333 C 115.218 133.333,115.152 131.456,115.152 129.161 C 115.152 74.566,178.278 40.291,212.797 76.143 L 215.547 78.999 214.763 77.219 C 209.912 66.202,205.593 60.013,201.861 58.729 C 192.524 55.516,173.744 55.968,162.041 59.685 C 160.375 60.215,158.832 60.722,158.612 60.813 C 158.393 60.904,158.214 60.847,158.214 60.686 C 158.214 60.291,165.616 56.791,169.387 55.404 C 174.240 53.617,183.015 51.599,188.198 51.076 C 192.738 50.618,205.197 50.678,209.410 51.177 M240.928 68.401 C 241.313 68.692,241.388 68.911,241.152 69.057 C 240.639 69.374,239.872 68.999,239.872 68.431 C 239.872 67.834,240.170 67.825,240.928 68.401 M264.434 68.526 C 282.470 75.228,287.011 104.082,272.085 117.139 C 261.025 126.814,244.762 119.119,239.909 101.914 C 239.563 100.686,239.270 99.983,239.257 100.351 C 239.245 100.720,239.395 101.481,239.590 102.042 C 239.786 102.603,239.861 103.148,239.757 103.252 C 239.653 103.356,239.482 103.169,239.376 102.837 C 239.271 102.505,238.983 101.857,238.738 101.398 C 237.629 99.324,236.829 93.780,237.640 93.780 C 237.815 93.780,237.959 93.278,237.959 92.663 C 237.959 92.038,237.798 91.547,237.593 91.547 C 236.519 91.547,238.678 82.348,240.261 80.185 C 245.563 72.936,249.339 69.771,254.265 68.446 C 256.700 67.791,262.581 67.837,264.434 68.526 M243.568 73.213 C 237.840 78.941,234.786 87.413,235.535 95.499 C 235.705 97.332,235.666 97.637,235.304 97.336 C 235.065 97.137,234.777 97.067,234.665 97.180 C 234.229 97.615,231.326 97.488,231.497 97.041 C 231.588 96.806,231.858 96.690,232.099 96.782 C 232.339 96.874,232.536 96.812,232.536 96.644 C 232.536 96.476,232.213 96.357,231.818 96.378 C 231.423 96.400,230.813 96.315,230.463 96.189 L 229.825 95.961 230.463 96.490 L 231.100 97.019 230.463 96.915 C 230.112 96.857,229.708 96.667,229.564 96.491 C 229.421 96.316,229.402 96.517,229.521 96.938 C 229.698 97.560,229.641 97.667,229.221 97.505 C 227.335 96.782,226.972 97.910,227.715 102.194 C 228.170 104.819,228.011 105.210,227.316 103.171 C 223.061 90.683,229.208 78.013,242.251 72.389 C 246.000 70.772,246.006 70.776,243.568 73.213 M255.472 72.504 C 248.287 74.953,243.297 83.359,243.343 92.936 C 243.362 97.014,243.873 100.925,244.349 100.631 C 244.486 100.547,244.517 100.787,244.418 101.166 C 244.287 101.667,244.347 101.786,244.641 101.605 C 244.941 101.419,244.991 101.550,244.836 102.113 C 244.675 102.694,244.701 102.754,244.946 102.367 C 245.168 102.017,245.116 101.334,244.777 100.134 C 242.963 93.713,244.468 84.691,248.255 79.285 C 248.746 78.585,248.784 78.433,248.393 78.747 C 247.627 79.361,247.708 78.693,248.485 77.990 C 248.896 77.619,249.123 77.554,249.123 77.809 C 249.123 78.027,249.805 77.543,250.638 76.733 C 253.038 74.402,256.300 72.938,259.622 72.703 C 261.128 72.597,262.002 72.472,261.563 72.427 L 260.766 72.345 261.563 72.089 C 262.122 71.910,261.644 71.827,259.968 71.810 C 258.274 71.794,256.962 71.996,255.472 72.504 M264.593 72.851 C 265.206 73.348,265.196 73.356,264.333 73.048 C 263.839 72.872,263.193 72.737,262.898 72.749 C 262.602 72.760,262.935 72.952,263.636 73.173 C 265.261 73.687,266.844 74.496,268.262 75.535 C 269.168 76.200,269.267 76.227,268.789 75.677 C 268.464 75.305,268.288 74.856,268.398 74.679 C 268.632 74.300,266.283 72.866,264.912 72.552 C 263.990 72.340,263.978 72.351,264.593 72.851 M238.380 93.142 C 238.380 94.282,238.438 94.749,238.508 94.179 C 238.579 93.608,238.579 92.675,238.508 92.105 C 238.438 91.535,238.380 92.002,238.380 93.142 M245.173 102.888 C 244.926 103.531,246.006 106.183,247.414 108.394 C 253.875 118.541,264.615 120.320,272.001 112.467 C 274.175 110.155,276.093 107.411,274.807 108.453 C 274.251 108.903,274.230 108.876,274.451 107.974 C 274.725 106.858,274.572 107.011,272.907 109.504 C 272.228 110.520,270.941 112.010,270.047 112.814 C 269.153 113.618,268.421 114.389,268.421 114.528 C 268.421 114.666,268.290 114.899,268.131 115.045 C 267.962 115.200,267.936 115.144,268.070 114.912 C 268.384 114.367,268.283 114.391,266.147 115.382 C 263.427 116.642,259.713 116.634,256.778 115.361 C 255.638 114.867,254.369 114.413,253.959 114.353 C 253.549 114.293,253.118 114.139,253.002 114.009 C 252.886 113.880,253.006 113.852,253.270 113.947 C 253.533 114.043,252.561 112.921,251.110 111.454 C 248.920 109.239,248.208 108.246,246.914 105.600 C 245.953 103.634,245.286 102.595,245.173 102.888 M222.580 103.386 C 222.658 103.797,222.283 103.946,220.733 104.121 C 218.586 104.364,218.619 104.284,219.638 106.775 C 219.934 107.500,220.208 107.752,220.557 107.618 C 220.906 107.484,221.053 107.621,221.053 108.081 C 221.053 108.440,221.183 108.815,221.342 108.913 C 221.501 109.011,221.558 109.370,221.469 109.711 C 221.380 110.052,221.537 110.793,221.819 111.357 C 222.490 112.702,222.719 112.609,217.456 113.108 C 193.735 115.358,168.018 121.611,146.269 130.419 C 142.770 131.837,139.878 132.964,139.842 132.926 C 139.806 132.887,139.680 131.536,139.560 129.924 C 139.441 128.313,139.294 126.734,139.234 126.416 C 139.173 126.098,139.113 125.659,139.099 125.441 C 138.994 123.730,115.649 137.308,113.804 140.153 C 113.591 140.482,113.753 145.730,114.022 147.209 C 114.135 147.827,112.980 149.034,111.870 149.460 C 111.398 149.641,111.200 148.645,110.552 142.844 L 110.385 141.349 112.688 139.316 C 125.124 128.340,154.006 115.571,181.459 108.912 C 199.140 104.623,222.227 101.520,222.580 103.386 M275.954 103.243 C 275.934 103.448,275.824 103.879,275.711 104.200 C 275.550 104.654,275.593 104.703,275.900 104.420 C 276.118 104.219,276.227 103.789,276.143 103.463 C 276.060 103.137,275.974 103.038,275.954 103.243 M223.545 106.826 C 223.802 107.562,223.778 107.737,223.426 107.686 C 222.740 107.585,222.571 107.282,222.799 106.563 C 223.075 105.694,223.162 105.725,223.545 106.826 M272.040 112.174 C 271.623 112.617,271.253 112.802,271.186 112.600 C 271.027 112.124,272.094 110.970,272.475 111.205 C 272.640 111.308,272.444 111.743,272.040 112.174 M234.769 114.367 C 234.769 114.214,235.342 114.709,236.043 115.469 C 237.315 116.847,239.012 116.694,238.458 115.251 C 238.264 114.745,238.657 114.701,239.131 115.176 C 239.376 115.421,239.432 115.297,239.326 114.742 C 239.223 114.206,239.348 113.900,239.729 113.754 C 240.180 113.581,240.212 113.626,239.902 113.999 C 239.643 114.312,239.629 114.522,239.858 114.664 C 240.091 114.808,240.086 115.072,239.841 115.528 C 239.586 116.005,239.586 116.126,239.841 115.969 C 240.034 115.849,240.191 115.912,240.191 116.108 C 240.191 116.305,240.335 116.376,240.510 116.268 C 240.900 116.027,240.900 116.026,240.531 117.313 C 240.367 117.885,240.354 118.278,240.504 118.186 C 240.653 118.094,240.832 118.191,240.903 118.402 C 241.001 118.695,241.281 118.683,242.086 118.349 L 243.141 117.912 242.977 115.879 L 242.814 113.845 244.490 115.695 C 245.411 116.712,247.190 118.249,248.442 119.112 C 249.694 119.974,250.681 120.718,250.634 120.765 C 250.443 120.955,245.614 120.140,245.614 119.917 C 245.614 119.785,245.339 119.749,245.002 119.837 C 242.938 120.377,237.643 117.727,234.481 114.573 C 233.129 113.224,232.641 112.689,233.396 113.384 C 234.151 114.078,234.769 114.521,234.769 114.367 M231.818 117.859 C 240.561 124.966,259.119 127.904,268.408 123.651 L 270.162 122.849 273.917 124.385 C 285.019 128.927,295.010 134.306,297.910 137.302 C 299.595 139.042,298.932 139.323,295.565 138.296 C 283.594 134.645,261.562 133.153,239.075 134.472 C 221.413 135.507,219.246 135.473,204.625 133.918 C 189.312 132.289,177.125 132.933,164.274 136.048 C 137.804 142.466,103.197 162.217,107.341 168.543 C 108.182 169.827,107.365 169.547,105.747 167.997 C 104.017 166.339,103.954 165.718,105.250 163.129 C 113.841 145.978,152.178 127.747,197.028 119.483 C 207.781 117.502,218.908 116.217,225.917 116.146 L 229.664 116.108 231.818 117.859 M261.536 116.950 C 261.813 117.190,259.780 117.008,259.171 116.738 C 258.745 116.549,259.010 116.519,259.968 116.645 C 260.758 116.750,261.463 116.887,261.536 116.950 M138.756 133.352 C 138.756 133.480,138.541 133.667,138.278 133.768 C 138.003 133.873,137.799 133.774,137.799 133.536 C 137.799 133.308,138.014 133.121,138.278 133.121 C 138.541 133.121,138.756 133.225,138.756 133.352 M199.681 138.437 C 201.523 138.613,205.183 138.987,207.815 139.268 C 215.103 140.046,228.179 140.192,236.204 139.586 C 244.687 138.945,257.660 138.650,262.839 138.980 L 266.826 139.234 267.843 141.148 C 268.840 143.025,269.960 146.174,270.373 148.263 C 270.571 149.264,270.541 149.306,269.779 149.115 C 268.276 148.738,265.465 151.906,263.879 155.767 C 262.673 158.703,261.519 163.082,261.862 163.425 C 262.039 163.602,262.031 164.041,261.842 164.540 C 261.274 166.034,260.618 171.714,260.612 175.191 L 260.606 178.612 259.693 178.430 C 258.642 178.220,257.156 178.887,255.543 180.292 C 253.573 182.009,253.428 182.010,249.787 180.364 C 241.981 176.834,238.427 178.806,232.218 190.112 C 224.657 203.881,215.216 208.194,201.595 204.102 C 193.614 201.704,186.954 203.578,184.182 209.001 C 183.167 210.987,183.201 211.065,184.609 209.961 C 187.127 207.988,187.078 207.959,187.104 211.435 C 187.169 220.149,195.962 227.465,213.876 233.709 C 216.267 234.542,230.774 238.595,231.377 238.598 C 233.311 238.608,234.131 239.256,234.131 240.777 C 234.131 247.762,239.319 255.310,249.920 263.748 C 252.026 265.423,254.745 267.591,255.964 268.565 C 281.436 288.911,284.821 319.536,263.918 340.528 C 261.216 343.240,256.924 346.664,256.614 346.353 C 256.540 346.279,256.925 345.078,257.470 343.683 C 259.702 337.973,261.007 332.179,261.381 326.316 L 261.574 323.285 260.516 325.686 C 251.122 347.009,226.273 361.720,199.646 361.722 C 193.851 361.723,192.525 361.298,195.295 360.330 C 200.989 358.339,207.958 354.011,212.366 349.728 C 215.045 347.124,215.097 347.047,213.723 347.717 C 189.480 359.527,150.919 354.608,129.720 337.001 C 127.077 334.806,127.029 334.867,130.946 335.422 C 135.982 336.135,148.780 335.827,149.676 334.970 C 149.806 334.847,148.872 334.559,147.603 334.330 C 125.036 330.261,105.754 315.324,99.240 296.865 C 97.921 293.127,97.900 293.160,100.552 294.853 C 106.638 298.740,115.499 301.593,124.317 302.507 L 125.986 302.680 122.563 300.962 C 103.349 291.320,93.260 273.764,97.445 257.257 C 98.264 254.026,101.911 247.288,102.279 248.325 C 106.446 260.060,119.975 266.964,147.912 271.610 C 182.612 277.381,197.477 284.899,208.520 302.263 C 209.133 303.226,208.112 300.380,207.038 298.128 C 200.083 283.556,184.252 273.900,159.377 269.056 L 154.002 268.009 152.998 266.783 C 150.701 263.979,143.916 256.555,138.606 251.037 C 120.027 231.729,115.569 220.039,121.394 205.901 C 121.573 205.468,121.188 205.672,120.195 206.539 C 115.555 210.587,109.005 212.400,103.849 211.063 C 101.710 210.508,101.762 210.271,104.382 208.612 C 107.323 206.751,111.368 202.752,115.332 197.785 C 119.275 192.846,119.305 192.798,118.131 193.404 C 111.123 197.025,102.696 195.906,97.020 190.602 L 94.959 188.676 99.075 188.490 C 109.767 188.007,117.370 181.952,122.950 169.475 C 123.876 167.404,125.585 163.813,126.747 161.496 L 128.860 157.282 132.745 154.711 C 150.402 143.028,177.871 136.350,199.681 138.437 M194.896 142.781 C 190.399 143.647,185.750 146.343,182.617 149.900 L 181.980 150.623 183.161 150.060 C 183.811 149.750,184.255 149.354,184.148 149.180 C 184.040 149.006,184.114 148.965,184.314 149.088 C 184.513 149.211,185.648 149.003,186.836 148.625 C 195.553 145.853,203.411 148.252,212.919 156.589 C 219.916 162.724,224.303 164.418,228.076 162.440 C 230.556 161.141,231.021 160.279,229.281 160.210 C 226.874 160.114,224.422 158.553,219.139 153.755 C 209.341 144.858,201.811 141.449,194.896 142.781 M271.327 154.893 C 271.582 155.906,271.223 161.096,270.778 162.839 C 270.599 163.541,270.341 169.510,270.206 176.103 C 269.922 189.922,269.880 190.148,268.125 187.145 L 267.342 185.805 267.967 183.573 C 270.013 176.268,268.875 164.923,265.766 161.629 L 264.925 160.737 266.035 158.649 C 268.122 154.722,270.807 152.817,271.327 154.893 M198.760 156.166 C 194.701 157.258,190.235 160.753,187.974 164.607 C 186.262 167.526,186.393 167.691,188.588 165.376 C 190.942 162.895,191.395 162.822,190.427 165.081 C 185.278 177.094,190.248 189.594,201.283 192.384 C 214.431 195.709,223.497 178.228,216.051 163.911 C 212.710 157.485,205.636 154.317,198.760 156.166 M200.867 164.509 C 203.715 166.375,203.935 171.985,201.260 174.532 C 198.094 177.547,194.329 175.474,194.012 170.542 C 193.692 165.560,197.439 162.262,200.867 164.509 M264.904 168.204 C 265.637 169.323,265.997 171.769,265.654 173.303 C 264.673 177.695,262.616 176.249,262.902 171.367 C 263.108 167.840,263.873 166.631,264.904 168.204 M261.484 183.377 C 262.141 184.059,263.436 185.961,264.361 187.604 C 272.643 202.310,285.516 209.111,301.384 207.162 C 311.256 205.950,316.526 208.534,314.689 213.686 C 313.423 217.238,308.044 221.886,308.233 219.264 C 308.554 214.826,298.167 216.319,280.223 223.292 C 273.869 225.761,269.477 227.181,264.753 228.295 C 251.346 231.454,230.074 227.182,208.772 217.051 C 201.977 213.820,201.185 213.136,204.147 213.059 L 205.263 213.030 204.147 212.600 C 202.019 211.780,198.973 211.986,197.986 213.016 C 196.890 214.160,196.900 214.596,198.018 214.432 C 198.678 214.335,199.606 214.736,201.607 215.980 C 211.909 222.388,226.447 228.093,239.713 230.934 C 253.147 233.810,263.032 233.003,276.918 227.897 C 291.624 222.490,293.425 222.054,295.050 223.507 L 296.099 224.443 295.536 225.630 C 294.668 227.457,291.484 230.113,288.068 231.858 C 272.724 239.696,252.696 240.227,227.273 233.471 C 219.326 231.359,217.766 230.895,212.939 229.209 C 199.532 224.526,191.370 218.223,190.595 211.956 C 189.993 207.088,193.796 205.639,201.693 207.727 C 216.800 211.722,227.429 206.564,235.752 191.199 C 240.407 182.606,243.296 181.042,249.237 183.901 C 253.338 185.874,255.030 185.745,257.399 183.281 C 258.890 181.729,259.918 181.754,261.484 183.377 M245.534 194.922 C 243.805 195.929,245.294 198.112,248.963 199.952 C 253.483 202.218,253.835 201.993,251.387 198.405 C 249.510 195.655,246.921 194.114,245.534 194.922 M134.634 285.167 C 134.511 287.982,136.484 295.843,138.308 299.803 C 144.837 313.986,161.806 324.215,178.530 324.049 L 181.978 324.014 179.745 323.621 C 158.580 319.891,140.682 305.010,135.222 286.603 C 134.910 285.550,134.645 284.904,134.634 285.167 " stroke="none" fill="#000000" fill-rule="evenodd"></path><path id="path2" d="M191.627 41.698 C 192.197 41.769,193.130 41.769,193.700 41.698 C 194.270 41.627,193.804 41.569,192.663 41.569 C 191.523 41.569,191.057 41.627,191.627 41.698 M204.231 41.696 C 204.716 41.770,205.433 41.768,205.826 41.692 C 206.218 41.616,205.821 41.556,204.944 41.559 C 204.067 41.561,203.746 41.623,204.231 41.696 M195.917 45.851 C 197.443 45.910,200.027 45.910,201.659 45.852 C 203.290 45.794,202.041 45.746,198.884 45.746 C 195.726 45.745,194.391 45.793,195.917 45.851 M189.717 46.159 C 190.113 46.235,190.688 46.232,190.993 46.152 C 191.298 46.072,190.973 46.010,190.271 46.013 C 189.569 46.017,189.320 46.082,189.717 46.159 M207.416 46.153 C 207.723 46.233,208.226 46.233,208.533 46.153 C 208.840 46.073,208.589 46.007,207.974 46.007 C 207.360 46.007,207.109 46.073,207.416 46.153 M203.907 50.938 C 204.215 51.018,204.717 51.018,205.024 50.938 C 205.331 50.857,205.080 50.792,204.466 50.792 C 203.852 50.792,203.600 50.857,203.907 50.938 M232.536 54.067 C 233.489 55.032,234.340 55.821,234.428 55.821 C 234.516 55.821,233.808 55.032,232.855 54.067 C 231.902 53.102,231.051 52.313,230.963 52.313 C 230.875 52.313,231.583 53.102,232.536 54.067 M256.220 59.869 C 256.527 59.949,257.030 59.949,257.337 59.869 C 257.644 59.789,257.392 59.723,256.778 59.723 C 256.164 59.723,255.913 59.789,256.220 59.869 M140.490 62.281 L 139.553 63.317 140.590 62.381 C 141.160 61.865,141.627 61.399,141.627 61.344 C 141.627 61.097,141.364 61.314,140.490 62.281 M257.815 64.024 C 258.297 64.097,259.087 64.097,259.569 64.024 C 260.052 63.951,259.657 63.891,258.692 63.891 C 257.727 63.891,257.333 63.951,257.815 64.024 M277.671 67.943 C 278.713 68.995,279.637 69.856,279.725 69.856 C 279.813 69.856,279.032 68.995,277.990 67.943 C 276.949 66.890,276.025 66.029,275.937 66.029 C 275.849 66.029,276.630 66.890,277.671 67.943 M133.154 68.341 L 132.217 69.378 133.254 68.441 C 134.220 67.568,134.437 67.305,134.190 67.305 C 134.136 67.305,133.669 67.771,133.154 68.341 M254.705 68.407 C 236.970 72.962,233.129 100.666,248.177 115.491 C 259.756 126.898,275.533 120.715,280.035 103.007 C 284.874 83.977,270.504 64.348,254.705 68.407 M275.120 71.132 C 275.984 72.010,276.762 72.727,276.850 72.727 C 276.938 72.727,276.303 72.010,275.439 71.132 C 274.575 70.255,273.796 69.537,273.708 69.537 C 273.620 69.537,274.256 70.255,275.120 71.132 M251.499 71.070 C 250.601 71.832,248.804 73.055,248.804 72.905 C 248.804 72.707,251.359 70.813,251.627 70.813 C 251.723 70.813,251.666 70.929,251.499 71.070 M264.912 72.279 C 278.948 77.104,283.264 100.877,272.227 112.576 C 261.234 124.229,244.671 114.371,243.059 95.215 C 241.786 80.104,253.108 68.222,264.912 72.279 M241.778 72.826 C 236.497 75.132,233.278 77.580,230.879 81.112 C 229.460 83.201,227.612 87.048,227.892 87.328 C 227.990 87.426,228.070 87.331,228.070 87.116 C 228.070 85.524,232.570 83.083,236.627 82.475 C 237.178 82.392,239.935 77.233,239.663 76.794 C 239.549 76.608,239.605 76.549,239.788 76.662 C 239.971 76.775,240.490 76.384,240.941 75.792 C 241.392 75.201,242.424 74.054,243.234 73.243 C 244.985 71.492,244.894 71.466,241.778 72.826 M252.055 73.593 C 251.108 74.371,250.438 74.564,250.990 73.900 C 251.245 73.593,251.244 73.381,250.985 73.122 C 250.723 72.861,250.932 72.782,251.771 72.827 L 252.914 72.887 252.055 73.593 M132.057 75.120 C 131.283 75.909,130.720 76.555,130.808 76.555 C 130.896 76.555,131.602 75.909,132.376 75.120 C 133.151 74.330,133.713 73.684,133.626 73.684 C 133.538 73.684,132.832 74.330,132.057 75.120 M239.460 90.347 C 239.384 90.744,239.318 90.494,239.315 89.793 C 239.311 89.091,239.374 88.766,239.454 89.071 C 239.533 89.376,239.536 89.950,239.460 90.347 M288.750 92.185 C 288.750 92.799,288.816 93.050,288.896 92.743 C 288.976 92.436,288.976 91.934,288.896 91.627 C 288.816 91.320,288.750 91.571,288.750 92.185 M288.750 98.246 C 288.750 98.860,288.816 99.111,288.896 98.804 C 288.976 98.497,288.976 97.994,288.896 97.687 C 288.816 97.380,288.750 97.632,288.750 98.246 M213.716 103.403 C 191.468 106.077,172.746 110.511,154.067 117.529 C 145.851 120.616,143.986 121.444,145.343 121.403 C 145.896 121.386,146.268 121.240,146.168 121.078 C 146.069 120.916,146.233 120.879,146.535 120.995 C 146.890 121.131,147.006 121.082,146.867 120.855 C 146.721 120.619,146.883 120.580,147.368 120.734 C 147.902 120.903,148.023 120.858,147.838 120.559 C 147.674 120.295,147.718 120.236,147.965 120.389 C 148.535 120.741,151.337 119.592,150.815 119.221 C 150.525 119.014,150.617 118.972,151.118 119.082 C 151.535 119.173,154.820 118.239,158.933 116.859 C 177.951 110.477,196.277 106.510,216.268 104.448 C 218.675 104.199,218.853 104.127,218.612 103.499 C 218.411 102.973,217.453 102.954,213.716 103.403 M105.673 122.967 C 105.676 123.844,105.738 124.165,105.811 123.680 C 105.884 123.195,105.882 122.477,105.807 122.085 C 105.731 121.693,105.671 122.089,105.673 122.967 M109.824 125.359 C 109.824 126.324,109.884 126.719,109.957 126.236 C 110.030 125.754,110.030 124.964,109.957 124.482 C 109.884 123.999,109.824 124.394,109.824 125.359 M105.384 129.506 C 105.384 131.523,105.436 132.348,105.499 131.340 C 105.562 130.331,105.562 128.680,105.499 127.671 C 105.436 126.663,105.384 127.488,105.384 129.506 M109.789 134.466 C 109.756 135.527,109.586 136.568,109.411 136.779 C 109.236 136.991,109.316 136.970,109.588 136.735 C 109.959 136.413,110.054 135.836,109.966 134.421 L 109.849 132.536 109.789 134.466 M222.249 135.159 C 222.819 135.230,223.752 135.230,224.322 135.159 C 224.892 135.088,224.426 135.030,223.285 135.030 C 222.145 135.030,221.679 135.088,222.249 135.159 M308.533 138.915 C 308.537 139.617,308.602 139.867,308.679 139.470 C 308.755 139.073,308.752 138.499,308.672 138.194 C 308.592 137.889,308.530 138.214,308.533 138.915 M184.615 138.349 C 185.188 138.420,186.050 138.419,186.529 138.346 C 187.008 138.273,186.539 138.215,185.486 138.217 C 184.434 138.219,184.042 138.278,184.615 138.349 M192.896 138.348 C 193.462 138.419,194.467 138.420,195.128 138.351 C 195.790 138.282,195.327 138.224,194.099 138.223 C 192.871 138.221,192.329 138.278,192.896 138.348 M180.303 138.657 C 180.610 138.737,181.112 138.737,181.419 138.657 C 181.726 138.577,181.475 138.511,180.861 138.511 C 180.247 138.511,179.996 138.577,180.303 138.657 M202.632 138.976 C 202.939 139.056,203.441 139.056,203.748 138.976 C 204.055 138.896,203.804 138.830,203.190 138.830 C 202.576 138.830,202.325 138.896,202.632 138.976 M243.626 139.306 C 244.199 139.377,245.061 139.376,245.540 139.303 C 246.019 139.230,245.550 139.172,244.498 139.174 C 243.445 139.176,243.053 139.235,243.626 139.306 M263.561 139.304 C 264.046 139.377,264.764 139.375,265.156 139.299 C 265.548 139.224,265.152 139.164,264.274 139.166 C 263.397 139.169,263.076 139.231,263.561 139.304 M237.241 139.619 C 237.636 139.695,238.281 139.695,238.676 139.619 C 239.071 139.543,238.748 139.481,237.959 139.481 C 237.169 139.481,236.846 139.543,237.241 139.619 M233.254 139.933 C 233.561 140.013,234.063 140.013,234.370 139.933 C 234.677 139.853,234.426 139.787,233.812 139.787 C 233.198 139.787,232.947 139.853,233.254 139.933 M217.314 140.267 C 218.153 140.333,219.445 140.332,220.185 140.265 C 220.925 140.198,220.239 140.144,218.660 140.145 C 217.081 140.146,216.476 140.201,217.314 140.267 M227.677 140.263 C 228.250 140.334,229.112 140.333,229.591 140.260 C 230.070 140.187,229.601 140.129,228.549 140.131 C 227.496 140.133,227.104 140.192,227.677 140.263 M197.055 142.496 C 197.628 142.567,198.490 142.565,198.969 142.493 C 199.448 142.420,198.979 142.362,197.927 142.364 C 196.874 142.365,196.482 142.425,197.055 142.496 M220.096 154.486 C 220.096 154.541,220.562 155.007,221.132 155.522 L 222.169 156.459 221.232 155.423 C 220.359 154.456,220.096 154.239,220.096 154.486 M190.732 160.686 L 189.633 161.882 190.829 160.783 C 191.943 159.760,192.172 159.490,191.929 159.490 C 191.875 159.490,191.337 160.028,190.732 160.686 M224.327 163.546 C 224.811 163.620,225.529 163.618,225.921 163.542 C 226.314 163.466,225.917 163.406,225.040 163.409 C 224.163 163.411,223.842 163.473,224.327 163.546 M95.151 166.188 C 95.151 167.153,95.211 167.548,95.284 167.065 C 95.357 166.583,95.357 165.793,95.284 165.311 C 95.211 164.829,95.151 165.223,95.151 166.188 M277.967 174.322 C 277.967 178.182,278.013 179.717,278.069 177.734 C 278.125 175.750,278.125 172.592,278.069 170.716 C 278.012 168.840,277.967 170.463,277.967 174.322 M260.402 175.439 C 260.402 177.105,260.456 177.787,260.522 176.954 C 260.587 176.120,260.587 174.757,260.522 173.923 C 260.456 173.090,260.402 173.772,260.402 175.439 M218.911 175.279 C 218.913 176.156,218.975 176.477,219.049 175.992 C 219.122 175.508,219.120 174.790,219.044 174.398 C 218.969 174.005,218.909 174.402,218.911 175.279 M110.830 178.708 L 109.569 180.064 110.925 178.803 C 112.186 177.630,112.427 177.352,112.186 177.352 C 112.134 177.352,111.524 177.963,110.830 178.708 M115.610 181.260 L 114.673 182.297 115.710 181.360 C 116.676 180.486,116.893 180.223,116.647 180.223 C 116.592 180.223,116.125 180.690,115.610 181.260 M273.775 181.659 C 273.778 182.536,273.840 182.857,273.913 182.372 C 273.986 181.887,273.984 181.169,273.909 180.777 C 273.833 180.385,273.773 180.781,273.775 181.659 M269.930 183.413 C 269.930 184.027,269.996 184.278,270.076 183.971 C 270.157 183.664,270.157 183.162,270.076 182.855 C 269.996 182.548,269.930 182.799,269.930 183.413 M233.493 187.241 C 233.135 187.943,232.914 188.517,233.001 188.517 C 233.089 188.517,233.454 187.943,233.812 187.241 C 234.170 186.539,234.391 185.965,234.303 185.965 C 234.216 185.965,233.851 186.539,233.493 187.241 M213.380 189.075 L 212.281 190.271 213.477 189.172 C 214.590 188.149,214.820 187.879,214.576 187.879 C 214.523 187.879,213.985 188.417,213.380 189.075 M95.375 188.769 C 95.375 188.908,96.057 189.662,96.890 190.444 L 98.405 191.866 97.019 190.388 C 96.053 189.357,95.763 188.857,96.062 188.738 C 96.355 188.621,96.314 188.559,95.933 188.542 C 95.626 188.528,95.375 188.630,95.375 188.769 M278.456 192.105 C 279.777 193.514,280.064 193.767,280.064 193.527 C 280.064 193.476,279.382 192.794,278.549 192.012 L 277.033 190.590 278.456 192.105 M108.047 195.446 C 108.613 195.516,109.618 195.517,110.280 195.448 C 110.942 195.379,110.478 195.321,109.250 195.320 C 108.022 195.319,107.481 195.375,108.047 195.446 M302.954 198.631 C 303.351 198.707,303.925 198.704,304.230 198.624 C 304.535 198.544,304.211 198.482,303.509 198.486 C 302.807 198.489,302.557 198.554,302.954 198.631 M294.982 199.274 C 295.555 199.345,296.416 199.344,296.896 199.271 C 297.375 199.198,296.906 199.140,295.853 199.142 C 294.801 199.144,294.408 199.203,294.982 199.274 M109.876 204.226 L 108.293 205.901 109.968 204.318 C 110.889 203.448,111.643 202.694,111.643 202.644 C 111.643 202.406,111.347 202.670,109.876 204.226 M303.429 202.772 C 303.736 202.852,304.238 202.852,304.545 202.772 C 304.852 202.691,304.601 202.626,303.987 202.626 C 303.373 202.626,303.122 202.691,303.429 202.772 M294.498 203.422 C 295.156 203.491,296.232 203.491,296.890 203.422 C 297.548 203.353,297.010 203.297,295.694 203.297 C 294.378 203.297,293.840 203.353,294.498 203.422 M120.550 205.981 L 119.777 206.858 120.598 206.137 C 121.049 205.741,121.516 205.514,121.635 205.632 C 121.753 205.751,121.850 205.680,121.850 205.476 C 121.850 204.864,121.371 205.050,120.550 205.981 M185.629 206.619 L 184.530 207.815 185.726 206.716 C 186.839 205.693,187.069 205.423,186.825 205.423 C 186.772 205.423,186.233 205.961,185.629 206.619 M305.821 206.924 C 306.216 207.000,306.862 207.000,307.257 206.924 C 307.652 206.848,307.329 206.785,306.539 206.785 C 305.750 206.785,305.427 206.848,305.821 206.924 M295.295 207.881 C 295.690 207.957,296.336 207.957,296.730 207.881 C 297.125 207.805,296.802 207.742,296.013 207.742 C 295.223 207.742,294.900 207.805,295.295 207.881 M186.708 211.324 C 186.709 212.552,186.767 213.015,186.836 212.353 C 186.905 211.692,186.904 210.687,186.833 210.120 C 186.763 209.554,186.706 210.096,186.708 211.324 M106.468 211.398 C 107.218 211.466,108.366 211.465,109.020 211.396 C 109.673 211.328,109.059 211.272,107.656 211.274 C 106.252 211.275,105.718 211.331,106.468 211.398 M315.296 220.175 L 314.035 221.531 315.391 220.270 C 316.652 219.098,316.893 218.820,316.652 218.820 C 316.600 218.820,315.989 219.430,315.296 220.175 M191.866 222.010 C 192.730 222.887,193.509 223.604,193.596 223.604 C 193.684 223.604,193.049 222.887,192.185 222.010 C 191.321 221.132,190.542 220.415,190.455 220.415 C 190.367 220.415,191.002 221.132,191.866 222.010 M302.593 229.917 C 302.507 230.056,302.965 230.118,303.611 230.054 C 305.376 229.879,305.586 229.719,304.086 229.690 C 303.351 229.676,302.679 229.779,302.593 229.917 M296.471 231.021 L 295.534 232.057 296.571 231.121 C 297.141 230.605,297.608 230.139,297.608 230.084 C 297.608 229.837,297.344 230.054,296.471 231.021 M248.246 242.006 C 248.553 242.086,249.055 242.086,249.362 242.006 C 249.669 241.926,249.418 241.860,248.804 241.860 C 248.190 241.860,247.939 241.926,248.246 242.006 M251.280 242.331 C 251.676 242.407,252.251 242.404,252.556 242.324 C 252.861 242.245,252.536 242.182,251.834 242.186 C 251.132 242.189,250.883 242.255,251.280 242.331 M265.152 242.325 C 265.459 242.405,265.961 242.405,266.268 242.325 C 266.575 242.245,266.324 242.179,265.710 242.179 C 265.096 242.179,264.844 242.245,265.152 242.325 M257.177 242.660 C 258.186 242.723,259.837 242.723,260.845 242.660 C 261.854 242.597,261.029 242.545,259.011 242.545 C 256.994 242.545,256.168 242.597,257.177 242.660 M132.376 244.438 C 132.376 244.493,132.843 244.959,133.413 245.475 L 134.450 246.411 133.513 245.375 C 132.640 244.408,132.376 244.191,132.376 244.438 M251.116 246.472 C 251.423 246.552,251.926 246.552,252.233 246.472 C 252.540 246.392,252.289 246.326,251.675 246.326 C 251.061 246.326,250.809 246.392,251.116 246.472 M256.699 246.808 C 257.970 246.868,260.052 246.868,261.324 246.808 C 262.596 246.747,261.555 246.698,259.011 246.698 C 256.467 246.698,255.427 246.747,256.699 246.808 M137.799 250.239 C 138.929 251.380,139.926 252.313,140.013 252.313 C 140.101 252.313,139.248 251.380,138.118 250.239 C 136.988 249.099,135.991 248.166,135.904 248.166 C 135.816 248.166,136.669 249.099,137.799 250.239 M102.392 248.926 C 102.392 249.268,103.341 251.037,103.525 251.037 C 103.613 251.037,103.447 250.570,103.157 250.000 C 102.565 248.836,102.392 248.593,102.392 248.926 M247.209 255.343 C 247.804 255.957,248.363 256.459,248.451 256.459 C 248.538 256.459,248.123 255.957,247.528 255.343 C 246.933 254.729,246.374 254.226,246.286 254.226 C 246.199 254.226,246.614 254.729,247.209 255.343 M242.411 257.496 C 243.733 258.904,244.019 259.158,244.019 258.918 C 244.019 258.867,243.337 258.185,242.504 257.403 L 240.989 255.981 242.411 257.496 M96.725 261.882 C 96.725 262.496,96.790 262.747,96.871 262.440 C 96.951 262.133,96.951 261.631,96.871 261.324 C 96.790 261.017,96.725 261.268,96.725 261.882 M268.262 266.754 C 268.262 266.803,269.374 267.915,270.734 269.226 L 273.206 271.611 270.821 269.139 C 268.607 266.843,268.262 266.521,268.262 266.754 M266.188 271.451 C 267.407 272.679,268.476 273.684,268.563 273.684 C 268.651 273.684,267.726 272.679,266.507 271.451 C 265.289 270.223,264.220 269.219,264.132 269.219 C 264.044 269.219,264.970 270.223,266.188 271.451 M262.826 275.040 C 264.147 276.448,264.434 276.701,264.434 276.462 C 264.434 276.411,263.752 275.729,262.919 274.947 L 261.404 273.525 262.826 275.040 M198.711 286.523 C 199.493 287.356,200.175 288.038,200.226 288.038 C 200.465 288.038,200.212 287.752,198.804 286.430 L 197.289 285.008 198.711 286.523 M107.496 290.052 C 107.496 290.107,107.963 290.573,108.533 291.089 L 109.569 292.026 108.633 290.989 C 107.759 290.023,107.496 289.806,107.496 290.052 M200.638 292.982 C 201.768 294.123,202.765 295.056,202.852 295.056 C 202.940 295.056,202.087 294.123,200.957 292.982 C 199.827 291.842,198.830 290.909,198.743 290.909 C 198.655 290.909,199.508 291.842,200.638 292.982 M284.634 299.681 C 284.636 300.909,284.693 301.372,284.762 300.711 C 284.831 300.049,284.830 299.044,284.760 298.478 C 284.689 297.911,284.633 298.453,284.634 299.681 M125.837 302.711 C 125.729 302.887,125.944 303.030,126.316 303.030 C 126.687 303.030,126.903 302.887,126.794 302.711 C 126.686 302.536,126.471 302.392,126.316 302.392 C 126.161 302.392,125.946 302.536,125.837 302.711 M284.291 304.466 C 284.295 305.167,284.360 305.417,284.436 305.020 C 284.512 304.623,284.510 304.049,284.430 303.744 C 284.350 303.439,284.287 303.764,284.291 304.466 M145.614 310.686 C 146.833 311.914,147.902 312.919,147.989 312.919 C 148.077 312.919,147.152 311.914,145.933 310.686 C 144.714 309.458,143.645 308.453,143.558 308.453 C 143.470 308.453,144.395 309.458,145.614 310.686 M183.094 324.083 C 183.723 324.489,184.462 324.489,184.211 324.083 C 184.102 323.907,183.699 323.766,183.315 323.769 C 182.746 323.773,182.705 323.832,183.094 324.083 M150.399 334.928 C 150.290 335.104,150.417 335.247,150.680 335.247 C 150.943 335.247,151.247 335.104,151.356 334.928 C 151.464 334.753,151.337 334.609,151.074 334.609 C 150.811 334.609,150.507 334.753,150.399 334.928 M137.241 336.121 C 138.250 336.184,139.900 336.184,140.909 336.121 C 141.918 336.058,141.093 336.006,139.075 336.006 C 137.057 336.006,136.232 336.058,137.241 336.121 M250.538 340.431 L 249.601 341.467 250.638 340.530 C 251.604 339.657,251.821 339.394,251.575 339.394 C 251.520 339.394,251.053 339.860,250.538 340.431 M176.322 353.979 C 176.895 354.050,177.756 354.049,178.235 353.976 C 178.715 353.903,178.246 353.845,177.193 353.847 C 176.140 353.849,175.748 353.908,176.322 353.979 M185.572 353.979 C 186.145 354.050,187.006 354.049,187.486 353.976 C 187.965 353.903,187.496 353.845,186.443 353.847 C 185.391 353.849,184.999 353.908,185.572 353.979 M200.000 358.373 C 199.211 358.796,198.678 359.148,198.817 359.156 C 199.155 359.176,201.595 357.922,201.595 357.729 C 201.595 357.517,201.608 357.512,200.000 358.373 M205.028 361.310 C 205.424 361.386,205.999 361.384,206.304 361.304 C 206.609 361.224,206.284 361.161,205.582 361.165 C 204.880 361.169,204.631 361.234,205.028 361.310 M198.813 361.638 C 199.652 361.704,200.944 361.703,201.684 361.637 C 202.425 361.570,201.738 361.516,200.159 361.517 C 198.581 361.518,197.975 361.572,198.813 361.638 " stroke="none" fill="#474541" fill-rule="evenodd"></path><path id="path3" d="M196.252 50.955 C 197.612 51.015,199.837 51.015,201.196 50.955 C 202.556 50.895,201.443 50.846,198.724 50.846 C 196.005 50.846,194.892 50.895,196.252 50.955 M189.713 51.262 C 190.108 51.338,190.754 51.338,191.148 51.262 C 191.543 51.186,191.220 51.124,190.431 51.124 C 189.641 51.124,189.318 51.186,189.713 51.262 M206.778 51.257 C 207.085 51.337,207.588 51.337,207.895 51.257 C 208.202 51.176,207.951 51.111,207.337 51.111 C 206.722 51.111,206.471 51.176,206.778 51.257 M209.649 51.576 C 209.956 51.656,210.459 51.656,210.766 51.576 C 211.073 51.495,210.821 51.430,210.207 51.430 C 209.593 51.430,209.342 51.495,209.649 51.576 M179.804 53.025 C 180.184 53.193,180.026 53.228,179.346 53.124 C 177.997 52.919,176.347 53.252,176.609 53.677 C 176.729 53.869,176.657 53.910,176.437 53.774 C 175.925 53.457,174.110 53.884,174.346 54.265 C 174.460 54.449,174.175 54.492,173.631 54.373 C 172.904 54.214,172.821 54.248,173.206 54.545 C 173.590 54.843,173.507 54.877,172.780 54.718 C 172.231 54.598,171.951 54.641,172.067 54.829 C 172.323 55.243,171.208 55.573,170.487 55.296 C 170.094 55.145,169.984 55.192,170.140 55.445 C 170.281 55.673,170.206 55.752,169.943 55.651 C 169.283 55.398,161.085 58.848,161.085 59.379 C 161.085 59.517,160.905 59.562,160.686 59.480 C 160.467 59.398,159.856 59.617,159.330 59.966 C 158.128 60.765,158.297 60.763,160.636 59.956 C 175.228 54.918,199.880 55.357,205.278 60.752 C 207.650 63.121,215.949 77.757,215.949 79.568 C 215.949 79.688,215.195 78.926,214.274 77.875 C 210.293 73.332,201.952 66.849,200.915 67.490 C 200.693 67.627,200.624 67.585,200.746 67.387 C 200.860 67.203,200.743 66.972,200.487 66.874 C 199.197 66.379,200.093 67.569,203.947 71.473 C 207.441 75.011,211.802 80.451,211.802 81.271 C 211.802 81.381,210.833 80.465,209.649 79.236 C 195.134 64.164,168.117 61.676,148.370 73.591 C 131.509 83.765,119.751 103.204,118.506 122.967 C 118.205 127.743,118.220 127.700,117.130 126.701 C 116.261 125.904,116.241 125.814,116.480 123.785 C 116.925 120.017,117.422 116.700,117.619 116.188 C 117.746 115.855,117.685 115.763,117.439 115.915 C 117.233 116.042,117.051 116.532,117.034 117.004 L 117.002 117.863 116.721 117.065 C 116.497 116.427,116.474 116.505,116.606 117.453 C 116.849 119.199,116.397 122.279,116.054 121.212 C 115.840 120.546,115.822 120.585,115.945 121.449 C 116.026 122.018,115.988 124.817,115.861 127.669 C 115.666 132.047,115.601 132.507,115.447 130.622 L 115.264 128.389 115.208 130.702 C 115.141 133.455,115.124 133.450,118.096 131.467 C 140.415 116.575,180.881 103.400,213.794 100.311 C 216.821 100.027,219.872 99.730,220.574 99.650 L 221.850 99.505 221.893 95.765 C 221.994 86.813,226.382 78.663,234.143 73.011 C 235.189 72.249,236.045 71.507,236.045 71.361 C 236.045 71.214,236.178 71.177,236.342 71.278 C 236.902 71.625,237.017 70.848,236.562 69.794 L 236.107 68.740 236.155 69.662 C 236.238 71.221,235.562 70.921,234.631 68.987 C 229.518 58.363,227.663 57.123,216.501 56.861 L 209.877 56.706 210.210 57.583 C 210.393 58.065,211.029 59.337,211.622 60.410 C 213.470 63.752,216.350 71.548,217.322 75.837 C 217.711 77.555,216.960 76.289,215.680 73.068 C 212.739 65.670,208.186 57.559,206.269 56.303 C 204.249 54.979,197.887 53.337,193.780 53.079 C 189.490 52.810,179.230 52.770,179.804 53.025 M174.242 61.783 C 174.549 61.863,175.052 61.863,175.359 61.783 C 175.666 61.703,175.415 61.637,174.801 61.637 C 174.187 61.637,173.935 61.703,174.242 61.783 M240.191 68.750 C 240.191 69.266,240.690 69.383,240.968 68.933 C 241.065 68.776,240.930 68.565,240.668 68.464 C 240.378 68.353,240.191 68.465,240.191 68.750 M257.335 73.053 C 254.811 73.691,250.525 76.304,250.930 76.959 C 251.043 77.142,250.990 77.202,250.813 77.093 C 250.395 76.834,248.994 78.322,249.256 78.746 C 249.367 78.924,248.964 79.563,248.361 80.166 C 247.056 81.471,246.139 83.132,246.448 83.631 C 246.577 83.841,246.527 83.902,246.327 83.778 C 245.877 83.500,245.209 85.528,245.500 86.288 C 245.641 86.655,245.600 86.792,245.390 86.661 C 244.844 86.324,244.438 89.764,244.494 94.258 C 244.547 98.539,245.139 102.194,245.649 101.390 C 245.825 101.112,245.925 101.090,245.928 101.330 C 245.931 101.535,246.018 101.965,246.123 102.287 C 246.280 102.772,246.254 102.790,245.968 102.392 C 245.527 101.779,245.526 102.044,245.964 103.301 C 246.163 103.871,246.460 104.215,246.651 104.097 C 246.839 103.981,246.895 104.039,246.779 104.228 C 246.481 104.709,246.890 105.620,247.292 105.372 C 247.484 105.253,247.532 105.317,247.406 105.522 C 247.091 106.030,248.425 108.528,248.865 108.255 C 249.073 108.127,249.132 108.179,249.008 108.381 C 248.726 108.837,251.941 112.688,252.442 112.496 C 252.656 112.414,253.180 112.636,253.608 112.990 L 254.386 113.632 253.429 113.097 L 252.472 112.562 253.270 113.265 C 256.569 116.175,262.669 116.904,266.780 114.880 C 270.095 113.247,274.555 108.153,274.406 106.171 C 274.381 105.839,274.482 105.643,274.629 105.734 C 274.953 105.934,275.664 104.033,275.416 103.632 C 275.320 103.476,275.376 103.349,275.540 103.349 C 276.512 103.349,277.393 95.777,276.888 91.774 C 276.489 88.612,274.777 83.451,274.238 83.784 C 274.019 83.919,273.971 83.798,274.105 83.449 C 274.246 83.080,274.194 82.976,273.945 83.130 C 273.702 83.280,273.642 83.185,273.771 82.851 C 274.031 82.172,271.316 78.332,269.326 76.563 C 266.014 73.618,260.958 72.138,257.335 73.053 M269.717 77.273 L 270.654 78.309 269.617 77.373 C 269.047 76.857,268.581 76.391,268.581 76.336 C 268.581 76.089,268.844 76.306,269.717 77.273 M265.188 78.072 C 266.263 78.654,266.858 78.854,266.612 78.551 C 266.247 78.102,266.264 78.059,266.737 78.236 C 267.054 78.355,267.499 78.229,267.789 77.939 C 268.066 77.662,268.371 77.515,268.467 77.611 C 268.564 77.708,268.346 77.972,267.984 78.198 L 267.325 78.609 268.033 79.407 C 268.638 80.089,268.648 80.136,268.102 79.735 C 267.751 79.477,267.915 79.791,268.465 80.433 C 269.016 81.075,269.928 82.271,270.493 83.092 L 271.520 84.584 272.203 83.608 C 273.120 82.299,273.512 82.202,273.589 83.262 C 273.641 83.972,273.465 84.224,272.695 84.543 C 271.996 84.832,271.797 85.078,271.960 85.452 C 277.885 99.098,269.213 115.427,258.121 111.508 C 257.368 111.242,256.839 111.163,256.944 111.333 C 257.054 111.511,256.652 111.643,256.000 111.643 C 255.119 111.643,254.864 111.514,254.864 111.069 C 254.864 110.753,254.685 110.301,254.466 110.065 C 254.142 109.716,254.156 109.685,254.545 109.899 C 254.809 110.044,254.019 109.093,252.791 107.785 C 248.255 102.955,246.370 96.347,247.661 89.802 C 249.616 79.888,258.081 74.222,265.188 78.072 M135.247 80.542 C 133.940 81.858,132.943 82.935,133.030 82.935 C 133.118 82.935,134.259 81.858,135.566 80.542 C 136.873 79.226,137.871 78.150,137.783 78.150 C 137.695 78.150,136.554 79.226,135.247 80.542 M244.121 93.461 C 244.121 94.601,244.179 95.068,244.250 94.498 C 244.321 93.927,244.321 92.994,244.250 92.424 C 244.179 91.854,244.121 92.321,244.121 93.461 M122.229 99.039 C 122.030 99.476,121.960 100.074,122.072 100.368 C 122.210 100.725,122.155 100.827,121.908 100.674 C 121.659 100.520,121.607 100.624,121.748 100.993 C 121.865 101.296,121.827 101.459,121.665 101.359 C 121.504 101.259,121.372 101.522,121.372 101.944 C 121.372 102.366,121.401 102.711,121.436 102.711 C 121.728 102.711,122.735 99.705,122.580 99.300 C 122.447 98.954,122.504 98.856,122.749 99.007 C 122.991 99.157,123.053 99.064,122.929 98.741 C 122.681 98.094,122.654 98.106,122.229 99.039 M120.117 104.785 C 120.262 105.515,120.226 105.628,119.967 105.263 C 119.560 104.691,119.506 105.231,119.906 105.864 C 120.337 106.544,120.696 105.094,120.270 104.392 C 119.993 103.936,119.964 104.011,120.117 104.785 M264.115 112.440 C 263.198 112.964,262.201 113.058,262.201 112.620 C 262.201 112.456,262.667 112.263,263.238 112.192 C 263.808 112.122,264.418 112.046,264.593 112.024 C 264.769 112.002,264.553 112.189,264.115 112.440 M221.053 116.455 C 175.803 120.324,126.657 137.971,110.624 156.107 C 108.104 158.958,105.621 162.265,106.586 161.486 C 106.856 161.268,107.178 161.192,107.303 161.317 C 107.428 161.442,107.433 161.291,107.314 160.982 C 107.167 160.599,107.238 160.450,107.537 160.513 C 107.777 160.564,107.935 160.416,107.887 160.184 C 107.839 159.951,107.939 159.848,108.110 159.953 C 108.281 160.059,108.737 159.718,109.123 159.195 C 109.510 158.672,110.039 158.163,110.300 158.063 C 110.561 157.963,110.224 158.566,109.551 159.403 C 107.497 161.959,106.709 162.839,106.473 162.839 C 106.349 162.839,106.024 163.126,105.750 163.477 C 105.282 164.077,105.275 164.063,105.632 163.229 C 105.841 162.741,106.099 162.484,106.207 162.658 C 106.314 162.831,106.599 162.656,106.841 162.268 C 107.227 161.647,107.222 161.610,106.800 161.959 C 106.537 162.177,106.229 162.263,106.117 162.151 C 105.787 161.821,104.640 164.656,104.632 165.821 C 104.627 166.610,104.884 167.131,105.616 167.815 C 106.911 169.024,107.058 168.986,106.914 167.475 C 106.187 159.858,141.388 140.925,166.507 135.422 C 179.908 132.486,188.394 132.149,204.944 133.894 C 214.463 134.898,225.982 135.042,239.440 134.324 C 262.529 133.093,287.643 135.006,297.413 138.741 C 299.614 139.582,298.557 137.638,295.707 135.605 C 294.574 134.797,293.747 134.298,293.870 134.496 C 294.022 134.743,293.616 134.719,292.580 134.421 C 289.726 133.599,281.359 132.238,276.077 131.737 C 269.671 131.128,248.904 130.961,240.749 131.452 C 227.097 132.273,208.593 131.646,205.582 130.260 C 204.505 129.764,205.225 129.779,217.065 130.495 C 221.842 130.784,225.558 130.769,234.609 130.423 C 247.990 129.912,265.176 129.906,270.654 130.412 C 272.759 130.606,276.132 130.910,278.150 131.086 C 280.167 131.263,282.141 131.484,282.536 131.579 C 284.476 132.043,280.718 129.483,276.074 127.176 C 274.485 126.387,272.427 124.880,273.392 125.212 C 274.972 125.756,273.632 124.352,272.005 123.759 L 270.114 123.069 268.233 123.885 C 258.271 128.206,237.560 124.379,230.646 116.940 C 229.781 116.009,227.573 115.898,221.053 116.455 M115.551 124.242 C 115.554 124.944,115.620 125.194,115.696 124.797 C 115.772 124.400,115.769 123.826,115.690 123.521 C 115.610 123.216,115.547 123.541,115.551 124.242 M113.557 153.589 C 112.798 154.396,113.056 154.722,113.871 153.987 C 114.114 153.768,113.699 154.342,112.948 155.263 C 111.344 157.231,110.981 157.415,112.002 155.742 C 112.656 154.669,112.667 154.593,112.107 155.009 C 111.764 155.264,112.051 154.869,112.744 154.132 C 113.438 153.394,114.073 152.791,114.155 152.791 C 114.238 152.791,113.969 153.150,113.557 153.589 M258.548 182.800 C 258.664 182.987,258.555 183.092,258.302 183.036 C 258.053 182.980,257.392 183.390,256.835 183.946 C 256.278 184.503,255.284 185.124,254.625 185.326 C 253.967 185.529,253.248 185.752,253.026 185.821 C 252.777 185.900,253.082 186.389,253.823 187.099 L 255.024 188.249 254.090 188.044 C 253.577 187.931,251.711 187.174,249.944 186.361 C 247.652 185.308,246.200 184.845,244.883 184.747 C 242.546 184.574,242.617 183.956,245.001 183.721 L 246.730 183.550 244.657 183.385 C 241.043 183.099,239.832 184.165,236.061 190.948 C 227.091 207.083,217.594 211.764,201.862 207.802 C 194.059 205.837,190.750 206.878,190.750 211.297 C 190.750 218.639,201.630 226.025,220.349 231.389 C 248.488 239.453,266.186 240.165,283.094 233.913 C 291.160 230.931,297.455 225.483,295.069 223.551 C 293.503 222.283,291.314 222.786,279.531 227.121 C 264.042 232.819,256.414 233.848,244.179 231.889 C 230.855 229.756,212.761 223.130,202.392 216.587 C 199.789 214.944,198.983 214.586,198.006 214.637 C 196.574 214.711,196.533 214.502,197.706 213.097 C 198.878 211.694,201.110 211.441,203.987 212.386 C 205.791 212.978,205.837 213.018,204.785 213.069 C 202.288 213.190,202.293 213.517,204.812 214.892 C 212.742 219.220,226.976 224.547,237.002 226.940 C 253.506 230.879,262.112 230.094,280.542 222.967 C 298.306 216.098,308.453 214.666,308.453 219.029 C 308.453 220.020,309.043 219.973,310.579 218.861 C 313.108 217.029,314.870 214.110,314.787 211.892 L 314.742 210.686 314.538 211.962 C 314.371 213.011,314.293 213.119,314.099 212.570 C 312.302 207.462,297.333 209.429,277.670 217.358 C 276.111 217.987,274.690 218.501,274.512 218.501 C 273.684 218.501,292.475 209.499,294.182 209.078 C 297.124 208.352,295.120 208.137,291.099 208.747 C 280.239 210.395,268.701 202.456,261.730 188.537 C 260.725 186.531,259.541 184.604,259.098 184.256 C 258.369 183.682,258.343 183.586,258.821 183.237 C 259.297 182.889,259.299 182.831,258.844 182.657 C 258.536 182.539,258.421 182.594,258.548 182.800 M244.103 183.004 C 244.588 183.077,245.306 183.075,245.698 183.000 C 246.090 182.924,245.694 182.864,244.817 182.866 C 243.939 182.869,243.618 182.931,244.103 183.004 M260.746 183.174 C 260.951 184.161,261.342 184.642,261.903 184.600 C 262.449 184.559,262.425 184.465,261.658 183.665 C 260.690 182.655,260.631 182.623,260.746 183.174 M248.527 184.492 C 247.880 184.851,247.848 184.940,248.304 185.115 C 248.660 185.252,248.761 185.197,248.609 184.950 C 248.455 184.701,248.559 184.649,248.928 184.791 C 249.296 184.932,249.400 184.880,249.247 184.631 C 249.093 184.382,249.197 184.330,249.566 184.472 C 249.891 184.596,250.034 184.554,249.918 184.366 C 249.668 183.961,249.450 183.981,248.527 184.492 M248.140 195.043 C 249.998 196.003,253.804 201.167,253.142 201.828 C 252.601 202.369,245.696 198.425,245.143 197.258 C 244.078 195.014,245.727 193.795,248.140 195.043 M271.132 197.289 C 271.728 197.903,272.286 198.405,272.374 198.405 C 272.462 198.405,272.047 197.903,271.451 197.289 C 270.856 196.675,270.298 196.172,270.210 196.172 C 270.122 196.172,270.537 196.675,271.132 197.289 M292.743 207.881 C 293.138 207.957,293.784 207.957,294.179 207.881 C 294.573 207.805,294.250 207.742,293.461 207.742 C 292.671 207.742,292.348 207.805,292.743 207.881 " stroke="none" fill="#cbe80e" fill-rule="evenodd"></path><path id="path4" d="M196.890 41.384 C 197.899 41.447,199.549 41.447,200.558 41.384 C 201.567 41.321,200.742 41.269,198.724 41.269 C 196.707 41.269,195.881 41.321,196.890 41.384 M191.308 50.943 C 191.703 51.019,192.348 51.019,192.743 50.943 C 193.138 50.867,192.815 50.805,192.026 50.805 C 191.236 50.805,190.913 50.867,191.308 50.943 M180.144 56.696 C 181.240 56.758,183.034 56.758,184.131 56.696 C 185.227 56.633,184.330 56.582,182.137 56.582 C 179.944 56.582,179.047 56.633,180.144 56.696 M189.553 56.679 C 189.860 56.759,190.363 56.759,190.670 56.679 C 190.977 56.599,190.726 56.533,190.112 56.533 C 189.498 56.533,189.246 56.599,189.553 56.679 M177.273 61.479 C 178.194 61.544,179.701 61.544,180.622 61.479 C 181.543 61.415,180.789 61.362,178.947 61.362 C 177.105 61.362,176.352 61.415,177.273 61.479 M129.495 71.691 L 127.751 73.525 129.585 71.781 C 131.289 70.161,131.566 69.856,131.329 69.856 C 131.279 69.856,130.454 70.682,129.495 71.691 M250.128 71.772 C 249.400 72.300,248.804 72.809,248.804 72.905 C 248.804 73.055,250.601 71.832,251.499 71.070 C 252.255 70.430,251.321 70.908,250.128 71.772 M244.179 71.622 C 243.475 71.961,243.423 72.032,243.979 71.892 C 244.560 71.747,244.677 71.803,244.483 72.135 C 244.343 72.373,244.540 72.294,244.921 71.960 C 246.030 70.988,245.755 70.863,244.179 71.622 M256.938 71.748 C 256.584 71.887,257.437 71.937,258.852 71.860 C 262.168 71.679,262.636 71.502,259.809 71.499 C 258.581 71.497,257.289 71.609,256.938 71.748 M261.563 72.089 C 260.798 72.334,260.795 72.346,261.483 72.376 C 261.878 72.394,262.201 72.532,262.201 72.683 C 262.201 72.834,262.581 72.885,263.046 72.796 C 263.589 72.692,263.817 72.755,263.683 72.970 C 263.552 73.183,263.728 73.240,264.164 73.126 C 264.677 72.992,264.787 73.052,264.594 73.364 C 264.412 73.659,264.459 73.707,264.752 73.525 C 265.077 73.324,265.040 73.174,264.581 72.838 C 264.141 72.517,264.109 72.403,264.453 72.386 C 265.147 72.352,263.752 71.813,262.998 71.825 C 262.648 71.830,262.002 71.949,261.563 72.089 M272.408 73.844 C 273.361 74.809,274.213 75.598,274.300 75.598 C 274.388 75.598,273.680 74.809,272.727 73.844 C 271.774 72.879,270.923 72.089,270.835 72.089 C 270.747 72.089,271.455 72.879,272.408 73.844 M245.597 73.604 L 244.498 74.801 245.694 73.701 C 246.807 72.678,247.037 72.408,246.793 72.408 C 246.740 72.408,246.201 72.947,245.597 73.604 M250.985 73.122 C 251.244 73.381,251.245 73.593,250.990 73.900 C 250.774 74.160,250.762 74.322,250.958 74.322 C 251.134 74.322,250.398 75.243,249.323 76.369 C 247.468 78.311,245.569 81.062,245.121 82.456 C 245.001 82.830,245.027 82.948,245.185 82.741 C 245.333 82.546,245.675 82.421,245.944 82.463 C 246.232 82.508,246.434 82.301,246.434 81.963 C 246.434 81.646,246.321 81.456,246.184 81.541 C 245.842 81.753,245.876 81.285,246.245 80.702 C 246.412 80.439,246.876 80.217,247.277 80.209 C 248.018 80.194,248.055 80.080,247.687 78.947 C 247.499 78.368,247.513 78.361,247.842 78.874 C 248.042 79.185,248.342 79.355,248.510 79.251 C 248.677 79.147,248.732 78.929,248.631 78.766 C 248.530 78.603,248.599 78.469,248.785 78.469 C 248.971 78.469,249.123 78.245,249.123 77.972 C 249.123 77.666,249.277 77.561,249.522 77.699 C 249.841 77.880,249.841 77.839,249.522 77.495 C 248.910 76.836,248.993 76.696,250.943 75.108 C 253.103 73.348,253.258 72.908,251.749 72.827 C 250.926 72.782,250.723 72.861,250.985 73.122 M267.856 73.854 C 268.439 74.294,268.505 74.506,268.223 75.033 C 268.034 75.386,268.016 75.590,268.184 75.487 C 268.352 75.383,268.955 75.877,269.524 76.586 C 270.093 77.294,270.639 77.793,270.737 77.695 C 270.914 77.518,271.999 78.858,271.830 79.044 C 271.782 79.098,272.072 79.432,272.474 79.786 C 272.876 80.141,272.990 80.338,272.727 80.224 C 272.415 80.088,272.442 80.175,272.807 80.474 C 273.114 80.726,273.365 81.062,273.365 81.221 C 273.365 81.380,273.717 82.029,274.148 82.663 C 274.579 83.296,274.842 83.904,274.733 84.013 C 274.624 84.121,274.711 84.211,274.926 84.211 C 275.141 84.211,275.228 84.354,275.120 84.530 C 275.011 84.705,275.083 84.848,275.279 84.848 C 275.475 84.848,275.556 84.977,275.460 85.134 C 275.363 85.290,275.515 85.972,275.798 86.649 C 277.392 90.454,277.625 98.261,276.252 101.872 C 276.091 102.296,276.044 102.967,276.147 103.363 C 276.275 103.852,276.147 104.220,275.746 104.513 C 275.422 104.750,275.292 104.946,275.457 104.949 C 275.622 104.952,275.571 105.072,275.343 105.217 C 275.115 105.362,274.905 105.790,274.876 106.169 C 274.848 106.548,274.747 106.858,274.653 106.859 C 274.559 106.859,274.453 107.266,274.419 107.762 C 274.378 108.355,274.510 108.666,274.804 108.666 C 275.050 108.666,275.177 108.546,275.087 108.400 C 274.996 108.254,275.056 108.134,275.219 108.134 C 275.572 108.134,277.287 104.294,277.043 104.050 C 276.950 103.957,276.874 104.072,276.874 104.306 C 276.874 104.540,276.799 104.656,276.707 104.565 C 276.458 104.316,276.902 103.329,277.184 103.503 C 278.000 104.008,278.816 93.256,278.188 90.271 C 277.498 86.989,276.474 83.904,276.143 84.109 C 275.961 84.221,275.916 84.152,276.039 83.953 C 276.865 82.616,271.516 75.817,268.102 73.864 C 267.244 73.373,267.219 73.372,267.856 73.854 M241.607 75.040 L 240.670 76.077 241.707 75.140 C 242.277 74.624,242.743 74.158,242.743 74.103 C 242.743 73.857,242.480 74.074,241.607 75.040 M240.348 76.560 C 240.237 76.739,240.044 76.821,239.919 76.743 C 239.793 76.665,239.690 76.878,239.690 77.216 C 239.690 77.992,239.694 77.991,240.322 77.033 C 240.609 76.595,240.777 76.236,240.696 76.236 C 240.615 76.236,240.458 76.382,240.348 76.560 M232.855 78.309 C 232.080 79.099,231.518 79.745,231.606 79.745 C 231.693 79.745,232.399 79.099,233.174 78.309 C 233.949 77.520,234.511 76.874,234.423 76.874 C 234.335 76.874,233.630 77.520,232.855 78.309 M241.016 79.161 C 238.852 81.690,236.165 91.547,237.640 91.547 C 237.815 91.547,237.959 92.049,237.959 92.663 C 237.959 93.278,237.815 93.780,237.640 93.780 C 236.829 93.780,237.629 99.324,238.738 101.398 C 238.983 101.857,239.271 102.505,239.376 102.837 C 239.482 103.169,239.651 103.358,239.752 103.257 C 239.853 103.156,239.770 102.570,239.567 101.955 C 239.364 101.340,239.280 100.290,239.379 99.621 C 239.484 98.918,239.455 98.645,239.310 98.974 C 238.807 100.116,238.861 89.279,239.371 86.640 C 239.639 85.257,239.781 84.002,239.687 83.849 C 239.593 83.697,239.651 83.573,239.816 83.573 C 239.981 83.573,240.270 82.963,240.458 82.217 C 240.647 81.471,241.146 80.179,241.569 79.346 C 242.508 77.494,242.458 77.477,241.016 79.161 M238.145 80.330 C 237.541 81.528,236.857 82.513,236.626 82.517 C 234.931 82.548,230.791 84.076,229.755 85.052 C 228.318 86.408,228.073 86.195,228.963 84.363 C 229.344 83.577,229.578 82.935,229.481 82.935 C 229.129 82.935,227.444 87.070,226.809 89.494 C 225.813 93.298,226.032 99.243,227.311 103.131 C 228.001 105.229,228.172 104.832,227.715 102.194 C 226.972 97.910,227.335 96.782,229.221 97.505 C 229.641 97.667,229.698 97.560,229.521 96.938 C 229.402 96.517,229.421 96.316,229.564 96.491 C 229.708 96.667,230.112 96.857,230.463 96.915 L 231.100 97.019 230.463 96.490 L 229.825 95.961 230.463 96.189 C 230.813 96.315,231.423 96.400,231.818 96.378 C 232.213 96.357,232.536 96.476,232.536 96.644 C 232.536 96.812,232.339 96.874,232.099 96.782 C 231.858 96.690,231.588 96.806,231.497 97.041 C 231.326 97.488,234.229 97.615,234.665 97.180 C 234.777 97.067,235.065 97.137,235.304 97.336 C 235.666 97.637,235.705 97.332,235.535 95.499 C 235.088 90.665,236.204 84.816,238.412 80.433 C 239.044 79.177,239.490 78.150,239.402 78.150 C 239.314 78.150,238.749 79.131,238.145 80.330 M230.696 80.941 C 229.870 82.134,229.602 82.616,229.763 82.616 C 229.838 82.616,230.279 82.041,230.744 81.340 C 231.687 79.913,231.646 79.569,230.696 80.941 M244.375 84.242 C 244.179 84.803,244.029 85.421,244.042 85.614 C 244.054 85.807,244.270 85.403,244.521 84.717 C 244.773 84.030,244.923 83.413,244.855 83.345 C 244.787 83.277,244.571 83.680,244.375 84.242 M243.541 87.081 C 243.420 87.633,243.387 88.150,243.468 88.232 C 243.549 88.313,243.708 87.921,243.820 87.360 C 244.086 86.031,243.828 85.773,243.541 87.081 M242.972 90.510 C 242.878 91.519,242.908 93.565,243.039 95.056 C 243.262 97.583,243.278 97.459,243.284 93.222 C 243.291 88.244,243.233 87.740,242.972 90.510 M238.508 94.179 C 238.438 94.749,238.380 94.282,238.380 93.142 C 238.380 92.002,238.438 91.535,238.508 92.105 C 238.579 92.675,238.579 93.608,238.508 94.179 M289.086 95.215 C 289.089 96.093,289.151 96.413,289.224 95.929 C 289.297 95.444,289.295 94.726,289.220 94.334 C 289.144 93.941,289.084 94.338,289.086 95.215 M221.795 96.172 C 221.797 97.400,221.854 97.864,221.923 97.202 C 221.992 96.540,221.991 95.535,221.921 94.969 C 221.850 94.403,221.794 94.944,221.795 96.172 M243.744 99.864 C 243.695 100.421,245.056 104.587,245.580 105.488 C 246.030 106.261,246.021 105.806,245.567 104.809 C 245.279 104.176,245.296 103.886,245.647 103.438 C 246.052 102.922,246.042 102.910,245.534 103.309 C 244.901 103.805,244.823 103.593,245.306 102.690 C 245.543 102.248,245.534 102.073,245.272 102.073 C 245.065 102.073,244.995 101.847,245.109 101.550 C 245.284 101.093,245.241 101.082,244.769 101.470 C 244.284 101.868,244.247 101.839,244.413 101.196 C 244.514 100.801,244.478 100.552,244.331 100.642 C 244.185 100.733,244.002 100.482,243.926 100.084 C 243.850 99.687,243.767 99.588,243.744 99.864 M216.826 100.066 C 217.221 100.142,217.867 100.142,218.262 100.066 C 218.656 99.990,218.333 99.927,217.544 99.927 C 216.754 99.927,216.431 99.990,216.826 100.066 M219.369 102.933 C 218.763 103.030,218.511 103.241,218.572 103.601 C 218.669 104.179,218.851 104.144,210.686 105.094 C 193.847 107.052,176.195 111.066,158.902 116.869 C 153.278 118.756,151.614 119.199,151.010 118.969 C 150.081 118.616,148.985 118.914,149.654 119.338 C 149.888 119.486,150.223 119.607,150.399 119.607 C 150.574 119.607,150.502 119.468,150.239 119.298 C 149.976 119.128,149.904 118.989,150.080 118.989 C 151.248 118.989,151.089 119.571,149.786 120.069 C 148.991 120.373,148.171 120.517,147.965 120.389 C 147.718 120.236,147.674 120.295,147.838 120.559 C 148.023 120.858,147.902 120.903,147.368 120.734 C 146.883 120.580,146.721 120.619,146.867 120.855 C 147.006 121.082,146.890 121.131,146.535 120.995 C 146.165 120.853,146.062 120.905,146.218 121.157 C 146.389 121.434,146.234 121.448,145.614 121.212 C 145.016 120.985,144.842 120.995,144.998 121.247 C 145.146 121.487,144.986 121.527,144.498 121.372 C 143.964 121.202,143.843 121.247,144.028 121.546 C 144.182 121.795,144.148 121.869,143.938 121.739 C 142.229 120.683,118.992 133.752,112.688 139.316 L 110.385 141.349 110.552 142.844 C 111.200 148.645,111.398 149.641,111.870 149.460 C 112.980 149.034,114.135 147.827,114.022 147.209 C 113.753 145.730,113.591 140.482,113.804 140.153 C 115.649 137.308,138.994 123.730,139.099 125.441 C 139.113 125.659,139.173 126.098,139.234 126.416 C 139.294 126.734,139.441 128.313,139.560 129.924 C 139.680 131.536,139.806 132.887,139.842 132.926 C 139.878 132.964,142.770 131.837,146.269 130.419 C 168.018 121.611,193.735 115.358,217.456 113.108 C 222.719 112.609,222.490 112.702,221.819 111.357 C 221.537 110.793,221.380 110.052,221.469 109.711 C 221.558 109.370,221.501 109.011,221.342 108.913 C 221.183 108.815,221.053 108.440,221.053 108.081 C 221.053 107.621,220.906 107.484,220.557 107.618 C 220.208 107.752,219.934 107.500,219.638 106.775 C 218.619 104.284,218.586 104.364,220.733 104.121 C 222.283 103.946,222.658 103.797,222.580 103.386 C 222.479 102.849,221.111 102.656,219.369 102.933 M211.882 103.569 C 212.189 103.649,212.691 103.649,212.998 103.569 C 213.305 103.489,213.054 103.423,212.440 103.423 C 211.826 103.423,211.575 103.489,211.882 103.569 M203.907 104.526 C 204.215 104.606,204.717 104.606,205.024 104.526 C 205.331 104.446,205.080 104.380,204.466 104.380 C 203.852 104.380,203.600 104.446,203.907 104.526 M222.799 106.563 C 222.571 107.282,222.740 107.585,223.426 107.686 C 223.778 107.737,223.802 107.562,223.545 106.826 C 223.162 105.725,223.075 105.694,222.799 106.563 M246.550 107.389 C 246.860 108.031,247.568 108.201,248.026 107.742 C 248.135 107.633,247.960 107.583,247.637 107.630 C 247.314 107.678,246.862 107.488,246.633 107.208 C 246.277 106.772,246.265 106.798,246.550 107.389 M248.006 108.453 C 247.894 108.634,247.647 108.686,247.457 108.568 C 247.260 108.447,247.201 108.502,247.320 108.694 C 247.535 109.041,248.314 109.049,248.656 108.707 C 248.761 108.602,248.703 108.428,248.528 108.320 C 248.353 108.212,248.118 108.272,248.006 108.453 M248.485 110.467 C 248.485 110.522,248.951 110.988,249.522 111.503 L 250.558 112.440 249.621 111.404 C 248.748 110.437,248.485 110.220,248.485 110.467 M271.871 110.889 C 271.987 111.088,271.863 111.433,271.596 111.655 C 271.328 111.878,271.150 112.312,271.200 112.622 C 271.251 112.931,270.936 113.591,270.502 114.088 C 270.067 114.585,270.605 114.135,271.698 113.088 C 272.790 112.041,273.684 111.115,273.684 111.031 C 273.684 110.946,273.514 111.047,273.306 111.256 C 273.014 111.548,272.783 111.507,272.294 111.080 C 271.946 110.776,271.756 110.689,271.871 110.889 M234.481 114.573 C 237.643 117.727,242.938 120.377,245.002 119.837 C 245.339 119.749,245.614 119.785,245.614 119.917 C 245.614 120.140,250.443 120.955,250.634 120.765 C 250.681 120.718,249.694 119.974,248.442 119.112 C 247.190 118.249,245.411 116.712,244.490 115.695 L 242.814 113.845 242.977 115.879 L 243.141 117.912 242.086 118.349 C 241.281 118.683,241.001 118.695,240.903 118.402 C 240.832 118.191,240.653 118.094,240.504 118.186 C 240.354 118.278,240.367 117.885,240.531 117.313 C 240.900 116.026,240.900 116.027,240.510 116.268 C 240.335 116.376,240.191 116.305,240.191 116.108 C 240.191 115.912,240.034 115.849,239.841 115.969 C 239.586 116.126,239.586 116.005,239.841 115.528 C 240.086 115.072,240.091 114.808,239.858 114.664 C 239.629 114.522,239.643 114.312,239.902 113.999 C 240.212 113.626,240.180 113.581,239.729 113.754 C 239.348 113.900,239.223 114.206,239.326 114.742 C 239.432 115.297,239.376 115.421,239.131 115.176 C 238.657 114.701,238.264 114.745,238.458 115.251 C 239.012 116.694,237.315 116.847,236.043 115.469 C 235.342 114.709,234.769 114.214,234.769 114.367 C 234.769 114.521,234.151 114.078,233.396 113.384 C 232.641 112.689,233.129 113.224,234.481 114.573 M252.445 113.527 C 252.724 113.835,252.876 114.162,252.784 114.255 C 252.692 114.347,252.871 114.623,253.182 114.867 C 253.707 115.279,253.714 115.267,253.270 114.693 C 252.836 114.133,252.842 114.094,253.339 114.280 C 253.640 114.393,253.974 114.345,254.080 114.173 C 254.187 114.001,254.156 113.880,254.011 113.905 C 253.379 114.015,252.957 113.849,253.030 113.519 C 253.074 113.323,252.846 113.119,252.524 113.065 C 251.985 112.975,251.979 113.012,252.445 113.527 M246.571 114.294 C 246.571 114.349,247.037 114.816,247.608 115.331 L 248.644 116.268 247.707 115.231 C 246.834 114.265,246.571 114.048,246.571 114.294 M222.408 116.328 C 222.715 116.409,223.218 116.409,223.525 116.328 C 223.832 116.248,223.581 116.182,222.967 116.182 C 222.352 116.182,222.101 116.248,222.408 116.328 M259.171 116.412 C 258.629 116.631,258.712 116.705,259.712 116.900 C 260.360 117.027,261.078 117.055,261.307 116.963 C 261.535 116.872,261.220 116.783,260.606 116.767 C 259.763 116.744,259.607 116.661,259.968 116.427 C 260.539 116.058,260.066 116.049,259.171 116.412 M260.851 117.616 C 261.424 117.687,262.286 117.685,262.765 117.612 C 263.244 117.540,262.775 117.481,261.722 117.483 C 260.670 117.485,260.278 117.545,260.851 117.616 M252.632 119.136 C 252.632 119.354,254.585 120.322,254.731 120.176 C 254.800 120.107,254.356 119.812,253.744 119.520 C 253.132 119.228,252.632 119.055,252.632 119.136 M256.300 120.893 C 256.651 121.044,257.225 121.163,257.576 121.158 C 258.089 121.150,258.057 121.098,257.416 120.893 C 256.326 120.544,255.487 120.544,256.300 120.893 M259.578 121.446 C 260.328 121.513,261.476 121.513,262.130 121.444 C 262.783 121.375,262.169 121.320,260.766 121.321 C 259.362 121.323,258.828 121.379,259.578 121.446 M115.247 125.359 C 115.247 126.324,115.307 126.719,115.380 126.236 C 115.453 125.754,115.453 124.964,115.380 124.482 C 115.307 123.999,115.247 124.394,115.247 125.359 M253.987 125.579 C 254.294 125.659,254.797 125.659,255.104 125.579 C 255.411 125.499,255.159 125.433,254.545 125.433 C 253.931 125.433,253.680 125.499,253.987 125.579 M187.161 132.931 C 188.082 132.995,189.589 132.995,190.510 132.931 C 191.431 132.866,190.678 132.813,188.836 132.813 C 186.994 132.813,186.240 132.866,187.161 132.931 M137.799 133.536 C 137.799 133.774,138.003 133.873,138.278 133.768 C 138.541 133.667,138.756 133.480,138.756 133.352 C 138.756 133.225,138.541 133.121,138.278 133.121 C 138.014 133.121,137.799 133.308,137.799 133.536 M196.252 133.234 C 196.559 133.314,197.061 133.314,197.368 133.234 C 197.675 133.154,197.424 133.088,196.810 133.088 C 196.196 133.088,195.945 133.154,196.252 133.234 M243.301 134.196 C 243.696 134.272,244.342 134.272,244.737 134.196 C 245.132 134.120,244.809 134.058,244.019 134.058 C 243.230 134.058,242.907 134.120,243.301 134.196 M264.833 134.191 C 265.140 134.271,265.642 134.271,265.949 134.191 C 266.256 134.111,266.005 134.045,265.391 134.045 C 264.777 134.045,264.526 134.111,264.833 134.191 M236.922 134.515 C 237.317 134.591,237.963 134.591,238.357 134.515 C 238.752 134.439,238.429 134.377,237.640 134.377 C 236.850 134.377,236.527 134.439,236.922 134.515 M218.095 135.158 C 218.661 135.229,219.666 135.230,220.328 135.161 C 220.990 135.092,220.526 135.034,219.298 135.033 C 218.070 135.031,217.529 135.088,218.095 135.158 M226.082 135.159 C 226.656 135.230,227.517 135.229,227.996 135.156 C 228.475 135.083,228.006 135.025,226.954 135.027 C 225.901 135.029,225.509 135.088,226.082 135.159 M251.612 138.994 C 253.419 139.051,256.290 139.051,257.991 138.994 C 259.693 138.936,258.214 138.890,254.705 138.890 C 251.196 138.890,249.804 138.937,251.612 138.994 M222.737 140.267 C 223.576 140.333,224.867 140.332,225.608 140.265 C 226.348 140.198,225.662 140.144,224.083 140.145 C 222.504 140.146,221.898 140.201,222.737 140.267 M101.516 143.062 C 101.519 143.764,101.585 144.013,101.661 143.617 C 101.737 143.220,101.734 142.646,101.655 142.341 C 101.575 142.036,101.512 142.360,101.516 143.062 M217.544 152.253 C 217.544 152.308,218.010 152.774,218.581 153.290 L 219.617 154.226 218.680 153.190 C 217.807 152.223,217.544 152.006,217.544 152.253 M202.317 155.572 C 202.802 155.645,203.520 155.643,203.912 155.567 C 204.304 155.492,203.907 155.432,203.030 155.434 C 202.153 155.437,201.832 155.498,202.317 155.572 M273.819 173.844 C 273.819 177.440,273.865 178.911,273.922 177.113 C 273.979 175.315,273.979 172.372,273.922 170.574 C 273.865 168.776,273.819 170.247,273.819 173.844 M97.608 173.625 C 97.608 173.679,98.074 174.146,98.644 174.661 L 99.681 175.598 98.744 174.561 C 97.871 173.595,97.608 173.378,97.608 173.625 M268.974 176.396 C 268.974 177.010,269.039 177.261,269.119 176.954 C 269.200 176.647,269.200 176.144,269.119 175.837 C 269.039 175.530,268.974 175.781,268.974 176.396 M243.943 178.854 C 244.340 178.930,244.914 178.927,245.219 178.848 C 245.524 178.768,245.199 178.705,244.498 178.709 C 243.796 178.712,243.546 178.778,243.943 178.854 M277.905 182.137 C 277.905 182.751,277.971 183.002,278.051 182.695 C 278.131 182.388,278.131 181.886,278.051 181.579 C 277.971 181.272,277.905 181.523,277.905 182.137 M97.368 188.749 C 98.026 188.818,99.103 188.818,99.761 188.749 C 100.419 188.680,99.880 188.624,98.565 188.624 C 97.249 188.624,96.711 188.680,97.368 188.749 M225.982 198.804 L 224.721 200.159 226.077 198.899 C 226.822 198.205,227.432 197.595,227.432 197.543 C 227.432 197.302,227.154 197.543,225.982 198.804 M228.534 201.675 L 227.273 203.030 228.628 201.769 C 229.889 200.597,230.131 200.319,229.889 200.319 C 229.837 200.319,229.227 200.929,228.534 201.675 M209.483 205.653 C 210.049 205.723,211.054 205.724,211.715 205.655 C 212.377 205.586,211.914 205.529,210.686 205.527 C 209.458 205.526,208.916 205.582,209.483 205.653 M209.649 209.164 C 210.307 209.233,211.384 209.233,212.041 209.164 C 212.699 209.095,212.161 209.039,210.845 209.039 C 209.530 209.039,208.991 209.095,209.649 209.164 M183.767 210.545 C 183.347 210.894,183.071 211.248,183.154 211.330 C 183.237 211.413,183.641 211.122,184.052 210.685 C 184.947 209.732,184.819 209.669,183.767 210.545 M190.505 211.164 C 190.505 211.778,190.570 212.030,190.651 211.722 C 190.731 211.415,190.731 210.913,190.651 210.606 C 190.570 210.299,190.505 210.550,190.505 211.164 M323.519 211.483 C 323.519 212.097,323.585 212.348,323.665 212.041 C 323.745 211.734,323.745 211.232,323.665 210.925 C 323.585 210.618,323.519 210.869,323.519 211.483 M200.239 212.027 C 200.634 212.103,201.280 212.103,201.675 212.027 C 202.069 211.951,201.746 211.889,200.957 211.889 C 200.167 211.889,199.844 211.951,200.239 212.027 M119.078 216.746 C 119.080 217.799,119.139 218.191,119.210 217.618 C 119.281 217.045,119.280 216.183,119.207 215.704 C 119.134 215.225,119.076 215.694,119.078 216.746 M302.472 216.815 C 302.955 216.888,303.744 216.888,304.226 216.815 C 304.709 216.742,304.314 216.683,303.349 216.683 C 302.384 216.683,301.990 216.742,302.472 216.815 M292.428 222.873 C 292.825 222.949,293.399 222.947,293.704 222.867 C 294.009 222.787,293.684 222.724,292.982 222.728 C 292.281 222.732,292.031 222.797,292.428 222.873 M252.721 232.771 C 253.560 232.837,254.851 232.836,255.592 232.769 C 256.332 232.702,255.646 232.648,254.067 232.649 C 252.488 232.650,251.882 232.705,252.721 232.771 M253.828 238.184 C 254.222 238.260,254.868 238.260,255.263 238.184 C 255.658 238.108,255.335 238.045,254.545 238.045 C 253.756 238.045,253.433 238.108,253.828 238.184 M263.401 238.184 C 263.798 238.260,264.372 238.258,264.677 238.178 C 264.982 238.098,264.657 238.035,263.955 238.039 C 263.254 238.043,263.004 238.108,263.401 238.184 M253.349 242.325 C 253.656 242.405,254.159 242.405,254.466 242.325 C 254.773 242.245,254.522 242.179,253.907 242.179 C 253.293 242.179,253.042 242.245,253.349 242.325 M263.238 242.325 C 263.545 242.405,264.047 242.405,264.354 242.325 C 264.661 242.245,264.410 242.179,263.796 242.179 C 263.182 242.179,262.931 242.245,263.238 242.325 M250.239 251.994 C 251.281 253.046,252.205 253.907,252.293 253.907 C 252.380 253.907,251.600 253.046,250.558 251.994 C 249.517 250.941,248.593 250.080,248.505 250.080 C 248.417 250.080,249.198 250.941,250.239 251.994 M96.431 264.912 C 96.432 265.965,96.492 266.357,96.563 265.784 C 96.634 265.210,96.632 264.349,96.560 263.870 C 96.487 263.391,96.429 263.860,96.431 264.912 M283.671 305.679 C 283.742 306.347,284.302 306.465,284.466 305.845 C 284.551 305.526,284.502 305.531,284.267 305.868 C 284.013 306.231,283.924 306.202,283.783 305.708 C 283.635 305.193,283.618 305.188,283.671 305.679 M178.788 324.083 L 175.598 324.278 179.585 324.335 C 182.257 324.373,183.415 324.290,183.094 324.083 C 182.831 323.913,182.472 323.799,182.297 323.831 C 182.121 323.862,180.542 323.975,178.788 324.083 M261.324 326.794 C 261.328 327.496,261.393 327.746,261.470 327.349 C 261.546 326.952,261.543 326.378,261.463 326.073 C 261.383 325.768,261.321 326.093,261.324 326.794 M213.732 348.468 L 212.313 350.080 213.876 348.576 C 214.736 347.749,215.375 347.023,215.296 346.964 C 215.216 346.905,214.513 347.582,213.732 348.468 M180.455 354.297 C 181.022 354.368,182.026 354.369,182.688 354.300 C 183.350 354.231,182.887 354.173,181.659 354.172 C 180.431 354.170,179.889 354.227,180.455 354.297 M195.933 361.623 C 196.240 361.704,196.742 361.704,197.049 361.623 C 197.356 361.543,197.105 361.478,196.491 361.478 C 195.877 361.478,195.626 361.543,195.933 361.623 " stroke="none" fill="#292724" fill-rule="evenodd"></path></g></svg>