<svg width="1200" height="320" viewBox="0 0 1200 320" fill="none" xmlns="http://www.w3.org/2000/svg">
  <defs>
    <linearGradient id="bg" x1="0" y1="0" x2="1200" y2="320" gradientUnits="userSpaceOnUse">
      <stop offset="0" stop-color="#0E1822"/>
      <stop offset="1" stop-color="#15354A"/>
    </linearGradient>
    <linearGradient id="accent" x1="0" y1="0" x2="1" y2="1">
      <stop offset="0" stop-color="#5EC6F5"/>
      <stop offset="1" stop-color="#2D9CDB"/>
    </linearGradient>
    <filter id="shadow" x="-20%" y="-20%" width="140%" height="140%" color-interpolation-filters="sRGB">
      <feDropShadow dx="0" dy="12" stdDeviation="18" flood-color="#061018" flood-opacity="0.35"/>
    </filter>
  </defs>

  <rect width="1200" height="320" rx="28" fill="url(#bg)"/>
  <circle cx="1080" cy="70" r="140" fill="#1B4E6B" fill-opacity="0.18"/>
  <circle cx="150" cy="280" r="180" fill="#0B2433" fill-opacity="0.45"/>
<rect width="1200" height="320" rx="28" fill="url(#bg)"/>
  <circle cx="1080" cy="70" r="140" fill="#1B4E6B" fill-opacity="0.18"/>
  <circle cx="150" cy="280" r="180" fill="#0B2433" fill-opacity="0.45"/>

  <g filter="url(#shadow)" transform="matrix(0.62, 0, 0, 0.62, 46, 46)">
    <g id="svgg">
      <path id="path0" stroke="none" fill="#ffffff" fill-rule="evenodd" d="M191.327 41.805 C 172.054 43.189,153.306 50.568,141.640 61.362 C 140.477 62.437,138.315 64.250,136.835 65.391 C 117.250 80.478,105.584 104.717,105.582 130.323 L 105.582 134.809 104.655 135.697 C 102.186 138.063,101.443 141.843,102.319 147.585 L 102.911 151.469 101.095 153.614 C 92.124 164.207,93.938 174.492,105.476 178.443 C 110.036 180.005,109.445 180.051,111.499 177.974 L 113.331 176.123 112.088 175.914 C 97.892 173.523,95.486 165.653,105.577 154.612 L 107.186 152.851 106.544 148.914 C 105.444 142.176,105.681 140.632,108.235 137.886 L 109.650 136.364 109.826 128.708 C 110.385 104.411,120.696 83.231,138.796 69.201 C 140.254 68.070,142.529 66.136,143.850 64.902 C 159.734 50.068,186.576 42.905,212.542 46.570 C 226.293 48.511,232.087 51.456,236.384 58.689 C 237.467 60.512,238.000 61.052,239.702 62.047 C 240.817 62.699,242.752 64.002,244.001 64.941 L 246.271 66.650 247.777 66.059 C 254.871 63.274,262.237 63.274,268.227 66.060 C 284.289 73.532,290.057 98.322,279.467 114.372 L 277.628 117.158 278.262 119.308 L 278.895 121.458 280.675 122.177 C 287.886 125.086,298.563 131.273,302.296 134.705 C 308.890 140.766,301.052 146.322,279.027 151.198 L 275.917 151.887 275.910 154.492 C 275.905 156.060,275.575 158.622,275.081 160.925 C 274.343 164.370,274.235 165.775,274.008 174.960 C 273.869 180.574,273.572 186.812,273.347 188.823 L 272.938 192.478 275.305 194.677 C 283.621 202.403,286.740 203.240,305.742 202.848 C 312.103 202.717,312.930 202.881,315.836 204.853 C 324.919 211.019,315.381 225.837,302.331 225.837 L 300.170 225.837 299.347 227.461 C 293.679 238.648,267.683 245.180,244.060 241.355 L 239.477 240.612 239.658 242.147 C 240.335 247.857,245.550 254.392,255.788 262.357 C 272.264 275.174,280.076 286.687,283.541 303.259 L 284.127 306.061 284.372 303.196 C 285.754 287.041,278.455 274.152,259.982 260.128 C 252.307 254.301,244.392 246.563,245.336 245.809 C 245.401 245.757,247.249 245.899,249.442 246.124 C 271.757 248.415,293.945 242.023,301.840 231.029 C 302.749 229.763,302.924 229.665,304.287 229.665 C 315.974 229.665,326.693 215.983,322.383 206.568 C 319.408 200.070,313.013 197.737,301.276 198.868 C 292.053 199.756,287.139 198.667,281.180 194.411 C 277.604 191.857,277.062 191.086,277.332 188.932 C 277.460 187.914,277.680 182.344,277.821 176.555 C 278.038 167.667,278.182 165.566,278.746 163.057 C 279.114 161.422,279.507 158.970,279.621 157.606 L 279.828 155.128 283.853 154.237 C 300.195 150.620,308.428 145.437,308.443 138.756 C 308.454 133.576,302.854 128.653,289.155 121.802 C 281.810 118.129,281.917 118.232,283.235 116.090 C 287.227 109.601,289.516 99.373,288.691 91.709 C 286.206 68.622,267.615 54.785,248.323 61.662 L 247.044 62.118 243.718 59.920 C 241.252 58.289,240.189 57.373,239.605 56.372 C 237.263 52.363,233.702 48.922,229.930 47.022 C 221.755 42.905,205.878 40.759,191.327 41.805 M188.843 51.393 C 185.792 51.663,179.257 52.840,178.952 53.174 C 178.862 53.273,179.362 53.245,180.064 53.111 C 181.840 52.772,193.687 52.904,196.013 53.288 C 200.436 54.020,204.696 55.272,206.269 56.303 C 208.186 57.559,212.739 65.670,215.680 73.068 C 216.960 76.289,217.711 77.555,217.322 75.837 C 216.350 71.548,213.470 63.752,211.622 60.410 C 211.029 59.337,210.393 58.065,210.210 57.583 L 209.877 56.706 216.501 56.861 C 227.664 57.123,229.517 58.363,234.633 68.991 C 235.247 70.266,235.663 70.783,235.978 70.662 C 236.308 70.536,236.375 70.643,236.221 71.049 C 236.068 71.450,236.106 71.513,236.351 71.270 C 237.403 70.227,231.103 58.788,228.299 56.650 C 222.848 52.493,204.301 50.021,188.843 51.393 M173.628 61.912 C 158.741 63.647,144.370 71.022,133.863 82.319 C 130.581 85.848,127.814 89.538,128.101 90.002 C 128.233 90.216,128.189 90.283,127.995 90.164 C 127.812 90.050,127.430 90.310,127.148 90.741 C 126.543 91.665,126.492 91.992,127.003 91.676 C 127.233 91.534,127.285 91.589,127.140 91.822 C 127.014 92.027,126.786 92.119,126.634 92.025 C 126.225 91.772,122.704 98.155,122.929 98.741 C 123.033 99.013,122.996 99.160,122.847 99.068 C 122.531 98.873,121.031 102.035,119.634 105.843 C 117.106 112.732,115.406 122.618,115.519 129.779 C 115.562 132.562,115.590 132.401,115.813 128.083 C 116.090 122.712,116.981 116.198,117.481 115.889 C 117.680 115.766,117.735 115.885,117.619 116.188 C 117.422 116.700,116.925 120.017,116.480 123.785 C 116.241 125.814,116.261 125.904,117.130 126.701 C 118.220 127.700,118.205 127.743,118.506 122.967 C 119.751 103.204,131.509 83.765,148.370 73.591 C 168.117 61.676,195.134 64.164,209.649 79.236 C 210.833 80.465,211.802 81.381,211.802 81.271 C 211.802 80.450,207.438 75.008,203.929 71.455 C 199.866 67.340,199.286 66.704,200.000 67.145 C 200.175 67.254,200.319 67.264,200.319 67.169 C 200.319 67.074,199.604 66.634,198.730 66.191 C 191.493 62.524,182.109 60.924,173.628 61.912 M268.581 76.336 C 268.581 76.391,269.047 76.857,269.617 77.373 L 270.654 78.309 269.717 77.273 C 268.844 76.306,268.581 76.089,268.581 76.336 M255.949 77.960 C 245.903 83.029,244.246 98.685,252.791 107.785 C 254.019 109.093,254.809 110.044,254.545 109.899 C 254.156 109.685,254.142 109.716,254.466 110.065 C 254.685 110.301,254.864 110.753,254.864 111.069 C 254.864 111.514,255.119 111.643,256.000 111.643 C 256.652 111.643,257.054 111.511,256.944 111.333 C 256.839 111.163,257.368 111.242,258.121 111.508 C 269.213 115.427,277.885 99.098,271.960 85.452 C 271.796 85.076,272.002 84.830,272.733 84.527 C 273.579 84.177,273.701 83.990,273.545 83.285 L 273.360 82.456 273.830 83.254 C 274.088 83.692,274.305 83.899,274.311 83.713 C 274.360 82.255,273.283 82.230,272.182 83.665 L 271.499 84.555 270.483 83.077 C 269.924 82.265,269.016 81.075,268.465 80.433 C 267.915 79.791,267.751 79.477,268.102 79.735 C 268.648 80.136,268.638 80.089,268.033 79.407 L 267.325 78.609 267.984 78.198 C 268.346 77.972,268.564 77.708,268.467 77.611 C 268.371 77.515,268.066 77.662,267.789 77.939 C 267.499 78.229,267.054 78.355,266.737 78.236 C 266.264 78.059,266.247 78.102,266.612 78.551 C 266.858 78.854,266.263 78.654,265.188 78.072 C 262.231 76.470,258.980 76.431,255.949 77.960 M248.485 79.745 C 248.110 80.271,247.875 80.702,247.963 80.702 C 248.051 80.702,248.429 80.271,248.804 79.745 C 249.179 79.219,249.413 78.788,249.326 78.788 C 249.238 78.788,248.860 79.219,248.485 79.745 M239.315 89.793 C 239.318 90.494,239.384 90.744,239.460 90.347 C 239.536 89.950,239.533 89.376,239.454 89.071 C 239.374 88.766,239.311 89.091,239.315 89.793 M244.445 93.461 C 244.445 94.777,244.502 95.315,244.570 94.657 C 244.639 93.999,244.639 92.923,244.570 92.265 C 244.502 91.607,244.445 92.145,244.445 93.461 M122.158 101.227 C 121.797 102.043,121.434 102.711,121.352 102.711 C 121.271 102.711,121.434 102.173,121.715 101.515 C 121.997 100.857,122.303 100.133,122.397 99.906 C 122.490 99.680,122.623 99.550,122.691 99.618 C 122.759 99.686,122.519 100.410,122.158 101.227 M263.238 112.192 C 262.667 112.263,262.201 112.456,262.201 112.620 C 262.201 113.058,263.198 112.964,264.115 112.440 C 264.553 112.189,264.769 112.002,264.593 112.024 C 264.418 112.046,263.808 112.122,263.238 112.192 M273.856 125.060 C 274.040 125.358,273.943 125.410,273.497 125.253 C 272.402 124.869,274.340 126.316,276.074 127.176 C 280.718 129.483,284.476 132.043,282.536 131.579 C 282.141 131.484,280.167 131.263,278.150 131.086 C 276.132 130.910,272.759 130.606,270.654 130.412 C 265.176 129.906,247.990 129.912,234.609 130.423 C 225.558 130.769,221.842 130.784,217.065 130.495 C 205.225 129.779,204.505 129.764,205.582 130.260 C 208.593 131.646,227.097 132.273,240.749 131.452 C 248.904 130.961,269.671 131.128,276.077 131.737 C 281.362 132.238,289.726 133.599,292.584 134.422 C 294.548 134.988,294.508 134.924,291.946 133.409 C 285.354 129.511,273.116 123.863,273.856 125.060 M185.646 138.317 C 168.372 139.411,150.201 144.744,136.045 152.874 C 129.181 156.816,128.452 157.721,123.919 167.943 C 117.520 182.371,109.658 188.771,98.246 188.841 L 95.534 188.858 97.458 190.681 C 102.579 195.533,109.835 196.602,117.158 193.582 C 119.905 192.449,119.939 192.477,118.258 194.482 C 117.514 195.369,115.470 197.861,113.716 200.019 C 110.437 204.054,107.003 207.267,104.076 209.039 C 102.044 210.270,102.030 210.359,103.810 210.807 C 108.956 212.103,115.501 210.329,119.958 206.430 C 121.882 204.747,122.074 204.830,121.226 206.981 C 117.556 216.294,119.728 227.352,127.279 237.799 C 130.200 241.841,131.333 243.129,140.186 252.472 C 144.175 256.683,148.965 261.875,150.830 264.011 L 154.220 267.895 157.253 268.430 C 185.361 273.392,202.175 284.250,208.759 301.693 C 209.871 304.637,209.695 304.837,208.222 302.303 C 204.649 296.160,196.455 288.311,189.060 283.950 C 179.265 278.174,169.406 275.272,147.687 271.772 C 125.985 268.274,115.530 264.328,107.879 256.747 C 105.720 254.608,102.392 249.847,102.392 248.897 C 102.392 247.537,100.325 250.469,98.865 253.901 C 92.803 268.146,99.979 286.171,115.949 296.815 C 119.236 299.007,125.494 302.392,126.256 302.392 C 126.443 302.392,126.685 302.534,126.792 302.708 C 127.043 303.113,124.100 302.853,119.458 302.059 C 112.921 300.940,106.129 298.511,101.242 295.544 C 98.320 293.771,98.416 293.715,99.393 296.615 C 105.681 315.288,127.868 332.016,149.609 334.476 C 152.574 334.812,151.554 335.149,145.774 335.743 C 140.341 336.301,134.726 336.228,130.478 335.544 C 127.824 335.117,127.817 335.207,130.361 337.252 C 151.876 354.553,189.524 359.097,213.850 347.327 C 216.474 346.058,216.391 346.250,212.880 349.573 C 207.613 354.557,197.510 360.766,194.667 360.766 C 194.442 360.766,194.258 360.909,194.258 361.085 C 194.258 361.282,195.948 361.404,198.690 361.404 C 221.953 361.404,243.780 351.023,255.365 334.450 C 257.104 331.962,261.244 324.057,261.244 323.224 C 261.244 322.995,261.379 322.807,261.543 322.807 C 261.707 322.807,261.785 323.274,261.715 323.844 C 261.645 324.414,261.513 326.388,261.421 328.230 C 261.226 332.135,259.705 338.615,257.942 343.056 C 256.569 346.513,256.530 346.458,259.045 344.609 C 271.769 335.253,279.050 318.732,277.054 303.747 C 275.097 289.053,268.134 278.300,252.791 266.280 C 243.993 259.387,240.463 255.926,237.550 251.339 C 235.607 248.281,234.225 244.561,233.875 241.453 L 233.652 239.476 228.868 238.274 C 200.683 231.193,186.762 222.327,186.762 211.459 L 186.762 208.689 185.370 209.687 C 184.604 210.236,183.782 210.964,183.543 211.305 C 182.835 212.314,182.797 211.756,183.455 210.002 C 185.946 203.360,192.974 201.352,203.349 204.317 C 215.298 207.731,224.894 203.002,231.849 190.271 C 238.189 178.667,242.056 176.527,250.042 180.206 C 253.289 181.701,253.552 181.693,255.542 180.031 C 257.309 178.554,257.935 178.246,259.162 178.246 L 260.192 178.246 260.389 174.051 C 260.864 163.937,262.917 155.689,265.956 151.682 C 267.377 149.810,269.092 148.561,269.894 148.816 C 270.683 149.066,269.714 145.556,268.029 142.053 L 266.826 139.553 263.955 139.290 C 260.043 138.931,242.006 139.284,234.769 139.862 C 225.616 140.592,218.929 140.484,207.390 139.418 C 197.589 138.512,189.241 138.090,185.646 138.317 M201.390 142.745 C 204.540 143.347,208.118 144.886,211.193 146.961 C 213.777 148.705,215.002 149.723,220.228 154.467 C 224.973 158.775,228.634 160.702,230.340 159.789 C 231.339 159.254,231.075 160.264,229.911 161.427 C 225.940 165.398,221.318 164.045,212.173 156.235 C 201.540 147.153,190.722 145.168,182.219 150.739 C 180.613 151.791,181.250 150.881,183.823 148.445 C 189.264 143.295,194.829 141.489,201.390 142.745 M112.744 154.132 C 112.051 154.869,111.764 155.264,112.107 155.009 C 112.667 154.593,112.656 154.669,112.002 155.742 C 110.981 157.415,111.344 157.231,112.948 155.263 C 113.699 154.342,114.114 153.768,113.871 153.987 C 113.056 154.722,112.798 154.396,113.557 153.589 C 113.969 153.150,114.238 152.791,114.155 152.791 C 114.073 152.791,113.438 153.394,112.744 154.132 M268.390 155.558 C 267.799 156.203,266.850 157.630,266.280 158.729 L 265.244 160.728 265.918 161.464 C 268.992 164.823,270.195 176.174,268.245 183.403 L 267.549 185.981 268.451 187.329 L 269.353 188.676 269.609 187.400 C 269.750 186.699,269.976 180.885,270.110 174.482 C 270.245 168.078,270.461 162.669,270.591 162.460 C 270.927 161.920,271.422 156.288,271.224 155.254 C 270.976 153.955,269.737 154.088,268.390 155.558 M207.064 155.969 C 223.779 161.135,222.293 191.820,205.275 192.912 C 192.440 193.736,183.760 177.503,190.287 164.882 C 190.550 164.373,190.640 163.955,190.485 163.955 C 190.139 163.955,187.173 167.066,186.686 167.940 C 185.948 169.263,186.025 168.161,186.785 166.520 C 190.675 158.126,199.382 153.595,207.064 155.969 M109.236 159.091 C 108.631 159.749,108.136 160.162,108.135 160.009 C 108.135 159.856,107.912 159.915,107.641 160.140 C 107.370 160.365,107.221 160.739,107.311 160.972 C 107.400 161.205,107.310 161.362,107.110 161.320 C 106.910 161.278,106.401 161.890,105.980 162.679 C 105.558 163.469,105.427 163.854,105.688 163.535 C 105.949 163.217,106.283 162.930,106.430 162.897 C 106.875 162.801,110.913 157.895,110.548 157.895 C 110.431 157.895,109.840 158.433,109.236 159.091 M196.840 164.647 C 193.622 166.848,193.036 171.728,195.672 174.364 C 199.806 178.499,205.045 172.120,202.186 166.432 C 201.049 164.172,198.687 163.383,196.840 164.647 M263.464 168.938 C 262.506 171.842,263.317 176.497,264.597 175.435 C 265.400 174.769,265.847 171.855,265.412 170.127 C 264.761 167.543,264.065 167.118,263.464 168.938 M258.010 183.120 L 257.257 183.783 258.045 183.279 C 259.000 182.669,259.688 182.602,258.873 183.199 C 258.323 183.601,258.335 183.655,259.098 184.256 C 259.541 184.604,260.725 186.531,261.730 188.537 C 268.701 202.456,280.239 210.395,291.099 208.747 C 295.120 208.137,297.124 208.352,294.182 209.078 C 292.475 209.499,273.684 218.501,274.512 218.501 C 274.690 218.501,276.111 217.987,277.670 217.358 C 296.945 209.586,311.063 207.582,313.890 212.218 L 314.511 213.238 314.512 212.011 C 314.516 207.897,309.934 206.372,300.961 207.500 C 284.825 209.530,272.417 202.468,263.058 185.929 C 261.370 182.946,259.431 181.867,258.010 183.120 M244.817 183.403 L 246.730 183.605 245.001 183.748 C 242.616 183.946,242.542 184.574,244.883 184.747 C 246.200 184.845,247.652 185.308,249.944 186.361 C 251.711 187.174,253.577 187.931,254.090 188.044 L 255.024 188.249 253.858 187.130 C 253.216 186.515,252.774 185.929,252.874 185.829 C 252.975 185.728,252.854 185.644,252.605 185.642 C 252.356 185.641,250.933 185.068,249.442 184.370 C 247.140 183.293,246.441 183.109,244.817 183.151 L 242.903 183.201 244.817 183.403 M249.280 184.685 C 249.396 184.873,249.253 184.915,248.928 184.791 C 248.559 184.649,248.455 184.701,248.609 184.950 C 248.760 185.196,248.662 185.252,248.315 185.119 C 247.898 184.959,247.878 184.865,248.219 184.649 C 248.780 184.294,249.044 184.303,249.280 184.685 M137.507 292.050 C 144.682 308.410,163.715 322.009,181.721 323.641 C 186.626 324.085,184.562 324.502,178.438 324.303 C 154.650 323.531,135.878 307.402,134.745 286.762 L 134.596 284.051 135.382 286.523 C 135.814 287.882,136.770 290.369,137.507 292.050 ">
      </path>
      <path id="path2" stroke="none" fill="#474541" fill-rule="evenodd" d="M191.627 41.698 C 192.197 41.769,193.130 41.769,193.700 41.698 C 194.270 41.627,193.804 41.569,192.663 41.569 C 191.523 41.569,191.057 41.627,191.627 41.698 M204.231 41.696 C 204.716 41.770,205.433 41.768,205.826 41.692 C 206.218 41.616,205.821 41.556,204.944 41.559 C 204.067 41.561,203.746 41.623,204.231 41.696 M195.917 45.851 C 197.443 45.910,200.027 45.910,201.659 45.852 C 203.290 45.794,202.041 45.746,198.884 45.746 C 195.726 45.745,194.391 45.793,195.917 45.851 M189.717 46.159 C 190.113 46.235,190.688 46.232,190.993 46.152 C 191.298 46.072,190.973 46.010,190.271 46.013 C 189.569 46.017,189.320 46.082,189.717 46.159 M207.416 46.153 C 207.723 46.233,208.226 46.233,208.533 46.153 C 208.840 46.073,208.589 46.007,207.974 46.007 C 207.360 46.007,207.109 46.073,207.416 46.153 M203.907 50.938 C 204.215 51.018,204.717 51.018,205.024 50.938 C 205.331 50.857,205.080 50.792,204.466 50.792 C 203.852 50.792,203.600 50.857,203.907 50.938 M232.536 54.067 C 233.489 55.032,234.340 55.821,234.428 55.821 C 234.516 55.821,233.808 55.032,232.855 54.067 C 231.902 53.102,231.051 52.313,230.963 52.313 C 230.875 52.313,231.583 53.102,232.536 54.067 M256.220 59.869 C 256.527 59.949,257.030 59.949,257.337 59.869 C 257.644 59.789,257.392 59.723,256.778 59.723 C 256.164 59.723,255.913 59.789,256.220 59.869 M140.490 62.281 L 139.553 63.317 140.590 62.381 C 141.160 61.865,141.627 61.399,141.627 61.344 C 141.627 61.097,141.364 61.314,140.490 62.281 M257.815 64.024 C 258.297 64.097,259.087 64.097,259.569 64.024 C 260.052 63.951,259.657 63.891,258.692 63.891 C 257.727 63.891,257.333 63.951,257.815 64.024 M277.671 67.943 C 278.713 68.995,279.637 69.856,279.725 69.856 C 279.813 69.856,279.032 68.995,277.990 67.943 C 276.949 66.890,276.025 66.029,275.937 66.029 C 275.849 66.029,276.630 66.890,277.671 67.943 M133.154 68.341 L 132.217 69.378 133.254 68.441 C 134.220 67.568,134.437 67.305,134.190 67.305 C 134.136 67.305,133.669 67.771,133.154 68.341 M254.705 68.407 C 236.970 72.962,233.129 100.666,248.177 115.491 C 259.756 126.898,275.533 120.715,280.035 103.007 C 284.874 83.977,270.504 64.348,254.705 68.407 M275.120 71.132 C 275.984 72.010,276.762 72.727,276.850 72.727 C 276.938 72.727,276.303 72.010,275.439 71.132 C 274.575 70.255,273.796 69.537,273.708 69.537 C 273.620 69.537,274.256 70.255,275.120 71.132 M251.499 71.070 C 250.601 71.832,248.804 73.055,248.804 72.905 C 248.804 72.707,251.359 70.813,251.627 70.813 C 251.723 70.813,251.666 70.929,251.499 71.070 M264.912 72.279 C 278.948 77.104,283.264 100.877,272.227 112.576 C 261.234 124.229,244.671 114.371,243.059 95.215 C 241.786 80.104,253.108 68.222,264.912 72.279 M241.778 72.826 C 236.497 75.132,233.278 77.580,230.879 81.112 C 229.460 83.201,227.612 87.048,227.892 87.328 C 227.990 87.426,228.070 87.331,228.070 87.116 C 228.070 85.524,232.570 83.083,236.627 82.475 C 237.178 82.392,239.935 77.233,239.663 76.794 C 239.549 76.608,239.605 76.549,239.788 76.662 C 239.971 76.775,240.490 76.384,240.941 75.792 C 241.392 75.201,242.424 74.054,243.234 73.243 C 244.985 71.492,244.894 71.466,241.778 72.826 M252.055 73.593 C 251.108 74.371,250.438 74.564,250.990 73.900 C 251.245 73.593,251.244 73.381,250.985 73.122 C 250.723 72.861,250.932 72.782,251.771 72.827 L 252.914 72.887 252.055 73.593 M132.057 75.120 C 131.283 75.909,130.720 76.555,130.808 76.555 C 130.896 76.555,131.602 75.909,132.376 75.120 C 133.151 74.330,133.713 73.684,133.626 73.684 C 133.538 73.684,132.832 74.330,132.057 75.120 M239.460 90.347 C 239.384 90.744,239.318 90.494,239.315 89.793 C 239.311 89.091,239.374 88.766,239.454 89.071 C 239.533 89.376,239.536 89.950,239.460 90.347 M288.750 92.185 C 288.750 92.799,288.816 93.050,288.896 92.743 C 288.976 92.436,288.976 91.934,288.896 91.627 C 288.816 91.320,288.750 91.571,288.750 92.185 M288.750 98.246 C 288.750 98.860,288.816 99.111,288.896 98.804 C 288.976 98.497,288.976 97.994,288.896 97.687 C 288.816 97.380,288.750 97.632,288.750 98.246 M213.716 103.403 C 191.468 106.077,172.746 110.511,154.067 117.529 C 145.851 120.616,143.986 121.444,145.343 121.403 C 145.896 121.386,146.268 121.240,146.168 121.078 C 146.069 120.916,146.233 120.879,146.535 120.995 C 146.890 121.131,147.006 121.082,146.867 120.855 C 146.721 120.619,146.883 120.580,147.368 120.734 C 147.902 120.903,148.023 120.858,147.838 120.559 C 147.674 120.295,147.718 120.236,147.965 120.389 C 148.535 120.741,151.337 119.592,150.815 119.221 C 150.525 119.014,150.617 118.972,151.118 119.082 C 151.535 119.173,154.820 118.239,158.933 116.859 C 177.951 110.477,196.277 106.510,216.268 104.448 C 218.675 104.199,218.853 104.127,218.612 103.499 C 218.411 102.973,217.453 102.954,213.716 103.403 M105.673 122.967 C 105.676 123.844,105.738 124.165,105.811 123.680 C 105.884 123.195,105.882 122.477,105.807 122.085 C 105.731 121.693,105.671 122.089,105.673 122.967 M109.824 125.359 C 109.824 126.324,109.884 126.719,109.957 126.236 C 110.030 125.754,110.030 124.964,109.957 124.482 C 109.884 123.999,109.824 124.394,109.824 125.359 M105.384 129.506 C 105.384 131.523,105.436 132.348,105.499 131.340 C 105.562 130.331,105.562 128.680,105.499 127.671 C 105.436 126.663,105.384 127.488,105.384 129.506 M109.789 134.466 C 109.756 135.527,109.586 136.568,109.411 136.779 C 109.236 136.991,109.316 136.970,109.588 136.735 C 109.959 136.413,110.054 135.836,109.966 134.421 L 109.849 132.536 109.789 134.466 M222.249 135.159 C 222.819 135.230,223.752 135.230,224.322 135.159 C 224.892 135.088,224.426 135.030,223.285 135.030 C 222.145 135.030,221.679 135.088,222.249 135.159 M308.533 138.915 C 308.537 139.617,308.602 139.867,308.679 139.470 C 308.755 139.073,308.752 138.499,308.672 138.194 C 308.592 137.889,308.530 138.214,308.533 138.915 M184.615 138.349 C 185.188 138.420,186.050 138.419,186.529 138.346 C 187.008 138.273,186.539 138.215,185.486 138.217 C 184.434 138.219,184.042 138.278,184.615 138.349 M192.896 138.348 C 193.462 138.419,194.467 138.420,195.128 138.351 C 195.790 138.282,195.327 138.224,194.099 138.223 C 192.871 138.221,192.329 138.278,192.896 138.348 M180.303 138.657 C 180.610 138.737,181.112 138.737,181.419 138.657 C 181.726 138.577,181.475 138.511,180.861 138.511 C 180.247 138.511,179.996 138.577,180.303 138.657 M202.632 138.976 C 202.939 139.056,203.441 139.056,203.748 138.976 C 204.055 138.896,203.804 138.830,203.190 138.830 C 202.576 138.830,202.325 138.896,202.632 138.976 M243.626 139.306 C 244.199 139.377,245.061 139.376,245.540 139.303 C 246.019 139.230,245.550 139.172,244.498 139.174 C 243.445 139.176,243.053 139.235,243.626 139.306 M263.561 139.304 C 264.046 139.377,264.764 139.375,265.156 139.299 C 265.548 139.224,265.152 139.164,264.274 139.166 C 263.397 139.169,263.076 139.231,263.561 139.304 M237.241 139.619 C 237.636 139.695,238.281 139.695,238.676 139.619 C 239.071 139.543,238.748 139.481,237.959 139.481 C 237.169 139.481,236.846 139.543,237.241 139.619 M233.254 139.933 C 233.561 140.013,234.063 140.013,234.370 139.933 C 234.677 139.853,234.426 139.787,233.812 139.787 C 233.198 139.787,232.947 139.853,233.254 139.933 M217.314 140.267 C 218.153 140.333,219.445 140.332,220.185 140.265 C 220.925 140.198,220.239 140.144,218.660 140.145 C 217.081 140.146,216.476 140.201,217.314 140.267 M227.677 140.263 C 228.250 140.334,229.112 140.333,229.591 140.260 C 230.070 140.187,229.601 140.129,228.549 140.131 C 227.496 140.133,227.104 140.192,227.677 140.263 M197.055 142.496 C 197.628 142.567,198.490 142.565,198.969 142.493 C 199.448 142.420,198.979 142.362,197.927 142.364 C 196.874 142.365,196.482 142.425,197.055 142.496 M220.096 154.486 C 220.096 154.541,220.562 155.007,221.132 155.522 L 222.169 156.459 221.232 155.423 C 220.359 154.456,220.096 154.239,220.096 154.486 M190.732 160.686 L 189.633 161.882 190.829 160.783 C 191.943 159.760,192.172 159.490,191.929 159.490 C 191.875 159.490,191.337 160.028,190.732 160.686 M224.327 163.546 C 224.811 163.620,225.529 163.618,225.921 163.542 C 226.314 163.466,225.917 163.406,225.040 163.409 C 224.163 163.411,223.842 163.473,224.327 163.546 M95.151 166.188 C 95.151 167.153,95.211 167.548,95.284 167.065 C 95.357 166.583,95.357 165.793,95.284 165.311 C 95.211 164.829,95.151 165.223,95.151 166.188 M277.967 174.322 C 277.967 178.182,278.013 179.717,278.069 177.734 C 278.125 175.750,278.125 172.592,278.069 170.716 C 278.012 168.840,277.967 170.463,277.967 174.322 M260.402 175.439 C 260.402 177.105,260.456 177.787,260.522 176.954 C 260.587 176.120,260.587 174.757,260.522 173.923 C 260.456 173.090,260.402 173.772,260.402 175.439 M218.911 175.279 C 218.913 176.156,218.975 176.477,219.049 175.992 C 219.122 175.508,219.120 174.790,219.044 174.398 C 218.969 174.005,218.909 174.402,218.911 175.279 M110.830 178.708 L 109.569 180.064 110.925 178.803 C 112.186 177.630,112.427 177.352,112.186 177.352 C 112.134 177.352,111.524 177.963,110.830 178.708 M115.610 181.260 L 114.673 182.297 115.710 181.360 C 116.676 180.486,116.893 180.223,116.647 180.223 C 116.592 180.223,116.125 180.690,115.610 181.260 M273.775 181.659 C 273.778 182.536,273.840 182.857,273.913 182.372 C 273.986 181.887,273.984 181.169,273.909 180.777 C 273.833 180.385,273.773 180.781,273.775 181.659 M269.930 183.413 C 269.930 184.027,269.996 184.278,270.076 183.971 C 270.157 183.664,270.157 183.162,270.076 182.855 C 269.996 182.548,269.930 182.799,269.930 183.413 M233.493 187.241 C 233.135 187.943,232.914 188.517,233.001 188.517 C 233.089 188.517,233.454 187.943,233.812 187.241 C 234.170 186.539,234.391 185.965,234.303 185.965 C 234.216 185.965,233.851 186.539,233.493 187.241 M213.380 189.075 L 212.281 190.271 213.477 189.172 C 214.590 188.149,214.820 187.879,214.576 187.879 C 214.523 187.879,213.985 188.417,213.380 189.075 M95.375 188.769 C 95.375 188.908,96.057 189.662,96.890 190.444 L 98.405 191.866 97.019 190.388 C 96.053 189.357,95.763 188.857,96.062 188.738 C 96.355 188.621,96.314 188.559,95.933 188.542 C 95.626 188.528,95.375 188.630,95.375 188.769 M278.456 192.105 C 279.777 193.514,280.064 193.767,280.064 193.527 C 280.064 193.476,279.382 192.794,278.549 192.012 L 277.033 190.590 278.456 192.105 M108.047 195.446 C 108.613 195.516,109.618 195.517,110.280 195.448 C 110.942 195.379,110.478 195.321,109.250 195.320 C 108.022 195.319,107.481 195.375,108.047 195.446 M302.954 198.631 C 303.351 198.707,303.925 198.704,304.230 198.624 C 304.535 198.544,304.211 198.482,303.509 198.486 C 302.807 198.489,302.557 198.554,302.954 198.631 M294.982 199.274 C 295.555 199.345,296.416 199.344,296.896 199.271 C 297.375 199.198,296.906 199.140,295.853 199.142 C 294.801 199.144,294.408 199.203,294.982 199.274 M109.876 204.226 L 108.293 205.901 109.968 204.318 C 110.889 203.448,111.643 202.694,111.643 202.644 C 111.643 202.406,111.347 202.670,109.876 204.226 M303.429 202.772 C 303.736 202.852,304.238 202.852,304.545 202.772 C 304.852 202.691,304.601 202.626,303.987 202.626 C 303.373 202.626,303.122 202.691,303.429 202.772 M294.498 203.422 C 295.156 203.491,296.232 203.491,296.890 203.422 C 297.548 203.353,297.010 203.297,295.694 203.297 C 294.378 203.297,293.840 203.353,294.498 203.422 M120.550 205.981 L 119.777 206.858 120.598 206.137 C 121.049 205.741,121.516 205.514,121.635 205.632 C 121.753 205.751,121.850 205.680,121.850 205.476 C 121.850 204.864,121.371 205.050,120.550 205.981 M185.629 206.619 L 184.530 207.815 185.726 206.716 C 186.839 205.693,187.069 205.423,186.825 205.423 C 186.772 205.423,186.233 205.961,185.629 206.619 M305.821 206.924 C 306.216 207.000,306.862 207.000,307.257 206.924 C 307.652 206.848,307.329 206.785,306.539 206.785 C 305.750 206.785,305.427 206.848,305.821 206.924 M295.295 207.881 C 295.690 207.957,296.336 207.957,296.730 207.881 C 297.125 207.805,296.802 207.742,296.013 207.742 C 295.223 207.742,294.900 207.805,295.295 207.881 M186.708 211.324 C 186.709 212.552,186.767 213.015,186.836 212.353 C 186.905 211.692,186.904 210.687,186.833 210.120 C 186.763 209.554,186.706 210.096,186.708 211.324 M106.468 211.398 C 107.218 211.466,108.366 211.465,109.020 211.396 C 109.673 211.328,109.059 211.272,107.656 211.274 C 106.252 211.275,105.718 211.331,106.468 211.398 M315.296 220.175 L 314.035 221.531 315.391 220.270 C 316.652 219.098,316.893 218.820,316.652 218.820 C 316.600 218.820,315.989 219.430,315.296 220.175 M191.866 222.010 C 192.730 222.887,193.509 223.604,193.596 223.604 C 193.684 223.604,193.049 222.887,192.185 222.010 C 191.321 221.132,190.542 220.415,190.455 220.415 C 190.367 220.415,191.002 221.132,191.866 222.010 M302.593 229.917 C 302.507 230.056,302.965 230.118,303.611 230.054 C 305.376 229.879,305.586 229.719,304.086 229.690 C 303.351 229.676,302.679 229.779,302.593 229.917 M296.471 231.021 L 295.534 232.057 296.571 231.121 C 297.141 230.605,297.608 230.139,297.608 230.084 C 297.608 229.837,297.344 230.054,296.471 231.021 M248.246 242.006 C 248.553 242.086,249.055 242.086,249.362 242.006 C 249.669 241.926,249.418 241.860,248.804 241.860 C 248.190 241.860,247.939 241.926,248.246 242.006 M251.280 242.331 C 251.676 242.407,252.251 242.404,252.556 242.324 C 252.861 242.245,252.536 242.182,251.834 242.186 C 251.132 242.189,250.883 242.255,251.280 242.331 M265.152 242.325 C 265.459 242.405,265.961 242.405,266.268 242.325 C 266.575 242.245,266.324 242.179,265.710 242.179 C 265.096 242.179,264.844 242.245,265.152 242.325 M257.177 242.660 C 258.186 242.723,259.837 242.723,260.845 242.660 C 261.854 242.597,261.029 242.545,259.011 242.545 C 256.994 242.545,256.168 242.597,257.177 242.660 M132.376 244.438 C 132.376 244.493,132.843 244.959,133.413 245.475 L 134.450 246.411 133.513 245.375 C 132.640 244.408,132.376 244.191,132.376 244.438 M251.116 246.472 C 251.423 246.552,251.926 246.552,252.233 246.472 C 252.540 246.392,252.289 246.326,251.675 246.326 C 251.061 246.326,250.809 246.392,251.116 246.472 M256.699 246.808 C 257.970 246.868,260.052 246.868,261.324 246.808 C 262.596 246.747,261.555 246.698,259.011 246.698 C 256.467 246.698,255.427 246.747,256.699 246.808 M137.799 250.239 C 138.929 251.380,139.926 252.313,140.013 252.313 C 140.101 252.313,139.248 251.380,138.118 250.239 C 136.988 249.099,135.991 248.166,135.904 248.166 C 135.816 248.166,136.669 249.099,137.799 250.239 M102.392 248.926 C 102.392 249.268,103.341 251.037,103.525 251.037 C 103.613 251.037,103.447 250.570,103.157 250.000 C 102.565 248.836,102.392 248.593,102.392 248.926 M247.209 255.343 C 247.804 255.957,248.363 256.459,248.451 256.459 C 248.538 256.459,248.123 255.957,247.528 255.343 C 246.933 254.729,246.374 254.226,246.286 254.226 C 246.199 254.226,246.614 254.729,247.209 255.343 M242.411 257.496 C 243.733 258.904,244.019 259.158,244.019 258.918 C 244.019 258.867,243.337 258.185,242.504 257.403 L 240.989 255.981 242.411 257.496 M96.725 261.882 C 96.725 262.496,96.790 262.747,96.871 262.440 C 96.951 262.133,96.951 261.631,96.871 261.324 C 96.790 261.017,96.725 261.268,96.725 261.882 M268.262 266.754 C 268.262 266.803,269.374 267.915,270.734 269.226 L 273.206 271.611 270.821 269.139 C 268.607 266.843,268.262 266.521,268.262 266.754 M266.188 271.451 C 267.407 272.679,268.476 273.684,268.563 273.684 C 268.651 273.684,267.726 272.679,266.507 271.451 C 265.289 270.223,264.220 269.219,264.132 269.219 C 264.044 269.219,264.970 270.223,266.188 271.451 M262.826 275.040 C 264.147 276.448,264.434 276.701,264.434 276.462 C 264.434 276.411,263.752 275.729,262.919 274.947 L 261.404 273.525 262.826 275.040 M198.711 286.523 C 199.493 287.356,200.175 288.038,200.226 288.038 C 200.465 288.038,200.212 287.752,198.804 286.430 L 197.289 285.008 198.711 286.523 M107.496 290.052 C 107.496 290.107,107.963 290.573,108.533 291.089 L 109.569 292.026 108.633 290.989 C 107.759 290.023,107.496 289.806,107.496 290.052 M200.638 292.982 C 201.768 294.123,202.765 295.056,202.852 295.056 C 202.940 295.056,202.087 294.123,200.957 292.982 C 199.827 291.842,198.830 290.909,198.743 290.909 C 198.655 290.909,199.508 291.842,200.638 292.982 M284.634 299.681 C 284.636 300.909,284.693 301.372,284.762 300.711 C 284.831 300.049,284.830 299.044,284.760 298.478 C 284.689 297.911,284.633 298.453,284.634 299.681 M125.837 302.711 C 125.729 302.887,125.944 303.030,126.316 303.030 C 126.687 303.030,126.903 302.887,126.794 302.711 C 126.686 302.536,126.471 302.392,126.316 302.392 C 126.161 302.392,125.946 302.536,125.837 302.711 M284.291 304.466 C 284.295 305.167,284.360 305.417,284.436 305.020 C 284.512 304.623,284.510 304.049,284.430 303.744 C 284.350 303.439,284.287 303.764,284.291 304.466 M145.614 310.686 C 146.833 311.914,147.902 312.919,147.989 312.919 C 148.077 312.919,147.152 311.914,145.933 310.686 C 144.714 309.458,143.645 308.453,143.558 308.453 C 143.470 308.453,144.395 309.458,145.614 310.686 M183.094 324.083 C 183.723 324.489,184.462 324.489,184.211 324.083 C 184.102 323.907,183.699 323.766,183.315 323.769 C 182.746 323.773,182.705 323.832,183.094 324.083 M150.399 334.928 C 150.290 335.104,150.417 335.247,150.680 335.247 C 150.943 335.247,151.247 335.104,151.356 334.928 C 151.464 334.753,151.337 334.609,151.074 334.609 C 150.811 334.609,150.507 334.753,150.399 334.928 M137.241 336.121 C 138.250 336.184,139.900 336.184,140.909 336.121 C 141.918 336.058,141.093 336.006,139.075 336.006 C 137.057 336.006,136.232 336.058,137.241 336.121 M250.538 340.431 L 249.601 341.467 250.638 340.530 C 251.604 339.657,251.821 339.394,251.575 339.394 C 251.520 339.394,251.053 339.860,250.538 340.431 M176.322 353.979 C 176.895 354.050,177.756 354.049,178.235 353.976 C 178.715 353.903,178.246 353.845,177.193 353.847 C 176.140 353.849,175.748 353.908,176.322 353.979 M185.572 353.979 C 186.145 354.050,187.006 354.049,187.486 353.976 C 187.965 353.903,187.496 353.845,186.443 353.847 C 185.391 353.849,184.999 353.908,185.572 353.979 M200.000 358.373 C 199.211 358.796,198.678 359.148,198.817 359.156 C 199.155 359.176,201.595 357.922,201.595 357.729 C 201.595 357.517,201.608 357.512,200.000 358.373 M205.028 361.310 C 205.424 361.386,205.999 361.384,206.304 361.304 C 206.609 361.224,206.284 361.161,205.582 361.165 C 204.880 361.169,204.631 361.234,205.028 361.310 M198.813 361.638 C 199.652 361.704,200.944 361.703,201.684 361.637 C 202.425 361.570,201.738 361.516,200.159 361.517 C 198.581 361.518,197.975 361.572,198.813 361.638 ">
      </path>
      <path id="path3" stroke="none" fill="#cbe80e" fill-rule="evenodd" d="M196.252 50.955 C 197.612 51.015,199.837 51.015,201.196 50.955 C 202.556 50.895,201.443 50.846,198.724 50.846 C 196.005 50.846,194.892 50.895,196.252 50.955 M189.713 51.262 C 190.108 51.338,190.754 51.338,191.148 51.262 C 191.543 51.186,191.220 51.124,190.431 51.124 C 189.641 51.124,189.318 51.186,189.713 51.262 M206.778 51.257 C 207.085 51.337,207.588 51.337,207.895 51.257 C 208.202 51.176,207.951 51.111,207.337 51.111 C 206.722 51.111,206.471 51.176,206.778 51.257 M209.649 51.576 C 209.956 51.656,210.459 51.656,210.766 51.576 C 211.073 51.495,210.821 51.430,210.207 51.430 C 209.593 51.430,209.342 51.495,209.649 51.576 M179.804 53.025 C 180.184 53.193,180.026 53.228,179.346 53.124 C 177.997 52.919,176.347 53.252,176.609 53.677 C 176.729 53.869,176.657 53.910,176.437 53.774 C 175.925 53.457,174.110 53.884,174.346 54.265 C 174.460 54.449,174.175 54.492,173.631 54.373 C 172.904 54.214,172.821 54.248,173.206 54.545 C 173.590 54.843,173.507 54.877,172.780 54.718 C 172.231 54.598,171.951 54.641,172.067 54.829 C 172.323 55.243,171.208 55.573,170.487 55.296 C 170.094 55.145,169.984 55.192,170.140 55.445 C 170.281 55.673,170.206 55.752,169.943 55.651 C 169.283 55.398,161.085 58.848,161.085 59.379 C 161.085 59.517,160.905 59.562,160.686 59.480 C 160.467 59.398,159.856 59.617,159.330 59.966 C 158.128 60.765,158.297 60.763,160.636 59.956 C 175.228 54.918,199.880 55.357,205.278 60.752 C 207.650 63.121,215.949 77.757,215.949 79.568 C 215.949 79.688,215.195 78.926,214.274 77.875 C 210.293 73.332,201.952 66.849,200.915 67.490 C 200.693 67.627,200.624 67.585,200.746 67.387 C 200.860 67.203,200.743 66.972,200.487 66.874 C 199.197 66.379,200.093 67.569,203.947 71.473 C 207.441 75.011,211.802 80.451,211.802 81.271 C 211.802 81.381,210.833 80.465,209.649 79.236 C 195.134 64.164,168.117 61.676,148.370 73.591 C 131.509 83.765,119.751 103.204,118.506 122.967 C 118.205 127.743,118.220 127.700,117.130 126.701 C 116.261 125.904,116.241 125.814,116.480 123.785 C 116.925 120.017,117.422 116.700,117.619 116.188 C 117.746 115.855,117.685 115.763,117.439 115.915 C 117.233 116.042,117.051 116.532,117.034 117.004 L 117.002 117.863 116.721 117.065 C 116.497 116.427,116.474 116.505,116.606 117.453 C 116.849 119.199,116.397 122.279,116.054 121.212 C 115.840 120.546,115.822 120.585,115.945 121.449 C 116.026 122.018,115.988 124.817,115.861 127.669 C 115.666 132.047,115.601 132.507,115.447 130.622 L 115.264 128.389 115.208 130.702 C 115.141 133.455,115.124 133.450,118.096 131.467 C 140.415 116.575,180.881 103.400,213.794 100.311 C 216.821 100.027,219.872 99.730,220.574 99.650 L 221.850 99.505 221.893 95.765 C 221.994 86.813,226.382 78.663,234.143 73.011 C 235.189 72.249,236.045 71.507,236.045 71.361 C 236.045 71.214,236.178 71.177,236.342 71.278 C 236.902 71.625,237.017 70.848,236.562 69.794 L 236.107 68.740 236.155 69.662 C 236.238 71.221,235.562 70.921,234.631 68.987 C 229.518 58.363,227.663 57.123,216.501 56.861 L 209.877 56.706 210.210 57.583 C 210.393 58.065,211.029 59.337,211.622 60.410 C 213.470 63.752,216.350 71.548,217.322 75.837 C 217.711 77.555,216.960 76.289,215.680 73.068 C 212.739 65.670,208.186 57.559,206.269 56.303 C 204.249 54.979,197.887 53.337,193.780 53.079 C 189.490 52.810,179.230 52.770,179.804 53.025 M174.242 61.783 C 174.549 61.863,175.052 61.863,175.359 61.783 C 175.666 61.703,175.415 61.637,174.801 61.637 C 174.187 61.637,173.935 61.703,174.242 61.783 M240.191 68.750 C 240.191 69.266,240.690 69.383,240.968 68.933 C 241.065 68.776,240.930 68.565,240.668 68.464 C 240.378 68.353,240.191 68.465,240.191 68.750 M257.335 73.053 C 254.811 73.691,250.525 76.304,250.930 76.959 C 251.043 77.142,250.990 77.202,250.813 77.093 C 250.395 76.834,248.994 78.322,249.256 78.746 C 249.367 78.924,248.964 79.563,248.361 80.166 C 247.056 81.471,246.139 83.132,246.448 83.631 C 246.577 83.841,246.527 83.902,246.327 83.778 C 245.877 83.500,245.209 85.528,245.500 86.288 C 245.641 86.655,245.600 86.792,245.390 86.661 C 244.844 86.324,244.438 89.764,244.494 94.258 C 244.547 98.539,245.139 102.194,245.649 101.390 C 245.825 101.112,245.925 101.090,245.928 101.330 C 245.931 101.535,246.018 101.965,246.123 102.287 C 246.280 102.772,246.254 102.790,245.968 102.392 C 245.527 101.779,245.526 102.044,245.964 103.301 C 246.163 103.871,246.460 104.215,246.651 104.097 C 246.839 103.981,246.895 104.039,246.779 104.228 C 246.481 104.709,246.890 105.620,247.292 105.372 C 247.484 105.253,247.532 105.317,247.406 105.522 C 247.091 106.030,248.425 108.528,248.865 108.255 C 249.073 108.127,249.132 108.179,249.008 108.381 C 248.726 108.837,251.941 112.688,252.442 112.496 C 252.656 112.414,253.180 112.636,253.608 112.990 L 254.386 113.632 253.429 113.097 L 252.472 112.562 253.270 113.265 C 256.569 116.175,262.669 116.904,266.780 114.880 C 270.095 113.247,274.555 108.153,274.406 106.171 C 274.381 105.839,274.482 105.643,274.629 105.734 C 274.953 105.934,275.664 104.033,275.416 103.632 C 275.320 103.476,275.376 103.349,275.540 103.349 C 276.512 103.349,277.393 95.777,276.888 91.774 C 276.489 88.612,274.777 83.451,274.238 83.784 C 274.019 83.919,273.971 83.798,274.105 83.449 C 274.246 83.080,274.194 82.976,273.945 83.130 C 273.702 83.280,273.642 83.185,273.771 82.851 C 274.031 82.172,271.316 78.332,269.326 76.563 C 266.014 73.618,260.958 72.138,257.335 73.053 M269.717 77.273 L 270.654 78.309 269.617 77.373 C 269.047 76.857,268.581 76.391,268.581 76.336 C 268.581 76.089,268.844 76.306,269.717 77.273 M265.188 78.072 C 266.263 78.654,266.858 78.854,266.612 78.551 C 266.247 78.102,266.264 78.059,266.737 78.236 C 267.054 78.355,267.499 78.229,267.789 77.939 C 268.066 77.662,268.371 77.515,268.467 77.611 C 268.564 77.708,268.346 77.972,267.984 78.198 L 267.325 78.609 268.033 79.407 C 268.638 80.089,268.648 80.136,268.102 79.735 C 267.751 79.477,267.915 79.791,268.465 80.433 C 269.016 81.075,269.928 82.271,270.493 83.092 L 271.520 84.584 272.203 83.608 C 273.120 82.299,273.512 82.202,273.589 83.262 C 273.641 83.972,273.465 84.224,272.695 84.543 C 271.996 84.832,271.797 85.078,271.960 85.452 C 277.885 99.098,269.213 115.427,258.121 111.508 C 257.368 111.242,256.839 111.163,256.944 111.333 C 257.054 111.511,256.652 111.643,256.000 111.643 C 255.119 111.643,254.864 111.514,254.864 111.069 C 254.864 110.753,254.685 110.301,254.466 110.065 C 254.142 109.716,254.156 109.685,254.545 109.899 C 254.809 110.044,254.019 109.093,252.791 107.785 C 248.255 102.955,246.370 96.347,247.661 89.802 C 249.616 79.888,258.081 74.222,265.188 78.072 M135.247 80.542 C 133.940 81.858,132.943 82.935,133.030 82.935 C 133.118 82.935,134.259 81.858,135.566 80.542 C 136.873 79.226,137.871 78.150,137.783 78.150 C 137.695 78.150,136.554 79.226,135.247 80.542 M244.121 93.461 C 244.121 94.601,244.179 95.068,244.250 94.498 C 244.321 93.927,244.321 92.994,244.250 92.424 C 244.179 91.854,244.121 92.321,244.121 93.461 M122.229 99.039 C 122.030 99.476,121.960 100.074,122.072 100.368 C 122.210 100.725,122.155 100.827,121.908 100.674 C 121.659 100.520,121.607 100.624,121.748 100.993 C 121.865 101.296,121.827 101.459,121.665 101.359 C 121.504 101.259,121.372 101.522,121.372 101.944 C 121.372 102.366,121.401 102.711,121.436 102.711 C 121.728 102.711,122.735 99.705,122.580 99.300 C 122.447 98.954,122.504 98.856,122.749 99.007 C 122.991 99.157,123.053 99.064,122.929 98.741 C 122.681 98.094,122.654 98.106,122.229 99.039 M120.117 104.785 C 120.262 105.515,120.226 105.628,119.967 105.263 C 119.560 104.691,119.506 105.231,119.906 105.864 C 120.337 106.544,120.696 105.094,120.270 104.392 C 119.993 103.936,119.964 104.011,120.117 104.785 M264.115 112.440 C 263.198 112.964,262.201 113.058,262.201 112.620 C 262.201 112.456,262.667 112.263,263.238 112.192 C 263.808 112.122,264.418 112.046,264.593 112.024 C 264.769 112.002,264.553 112.189,264.115 112.440 M221.053 116.455 C 175.803 120.324,126.657 137.971,110.624 156.107 C 108.104 158.958,105.621 162.265,106.586 161.486 C 106.856 161.268,107.178 161.192,107.303 161.317 C 107.428 161.442,107.433 161.291,107.314 160.982 C 107.167 160.599,107.238 160.450,107.537 160.513 C 107.777 160.564,107.935 160.416,107.887 160.184 C 107.839 159.951,107.939 159.848,108.110 159.953 C 108.281 160.059,108.737 159.718,109.123 159.195 C 109.510 158.672,110.039 158.163,110.300 158.063 C 110.561 157.963,110.224 158.566,109.551 159.403 C 107.497 161.959,106.709 162.839,106.473 162.839 C 106.349 162.839,106.024 163.126,105.750 163.477 C 105.282 164.077,105.275 164.063,105.632 163.229 C 105.841 162.741,106.099 162.484,106.207 162.658 C 106.314 162.831,106.599 162.656,106.841 162.268 C 107.227 161.647,107.222 161.610,106.800 161.959 C 106.537 162.177,106.229 162.263,106.117 162.151 C 105.787 161.821,104.640 164.656,104.632 165.821 C 104.627 166.610,104.884 167.131,105.616 167.815 C 106.911 169.024,107.058 168.986,106.914 167.475 C 106.187 159.858,141.388 140.925,166.507 135.422 C 179.908 132.486,188.394 132.149,204.944 133.894 C 214.463 134.898,225.982 135.042,239.440 134.324 C 262.529 133.093,287.643 135.006,297.413 138.741 C 299.614 139.582,298.557 137.638,295.707 135.605 C 294.574 134.797,293.747 134.298,293.870 134.496 C 294.022 134.743,293.616 134.719,292.580 134.421 C 289.726 133.599,281.359 132.238,276.077 131.737 C 269.671 131.128,248.904 130.961,240.749 131.452 C 227.097 132.273,208.593 131.646,205.582 130.260 C 204.505 129.764,205.225 129.779,217.065 130.495 C 221.842 130.784,225.558 130.769,234.609 130.423 C 247.990 129.912,265.176 129.906,270.654 130.412 C 272.759 130.606,276.132 130.910,278.150 131.086 C 280.167 131.263,282.141 131.484,282.536 131.579 C 284.476 132.043,280.718 129.483,276.074 127.176 C 274.485 126.387,272.427 124.880,273.392 125.212 C 274.972 125.756,273.632 124.352,272.005 123.759 L 270.114 123.069 268.233 123.885 C 258.271 128.206,237.560 124.379,230.646 116.940 C 229.781 116.009,227.573 115.898,221.053 116.455 M115.551 124.242 C 115.554 124.944,115.620 125.194,115.696 124.797 C 115.772 124.400,115.769 123.826,115.690 123.521 C 115.610 123.216,115.547 123.541,115.551 124.242 M113.557 153.589 C 112.798 154.396,113.056 154.722,113.871 153.987 C 114.114 153.768,113.699 154.342,112.948 155.263 C 111.344 157.231,110.981 157.415,112.002 155.742 C 112.656 154.669,112.667 154.593,112.107 155.009 C 111.764 155.264,112.051 154.869,112.744 154.132 C 113.438 153.394,114.073 152.791,114.155 152.791 C 114.238 152.791,113.969 153.150,113.557 153.589 M258.548 182.800 C 258.664 182.987,258.555 183.092,258.302 183.036 C 258.053 182.980,257.392 183.390,256.835 183.946 C 256.278 184.503,255.284 185.124,254.625 185.326 C 253.967 185.529,253.248 185.752,253.026 185.821 C 252.777 185.900,253.082 186.389,253.823 187.099 L 255.024 188.249 254.090 188.044 C 253.577 187.931,251.711 187.174,249.944 186.361 C 247.652 185.308,246.200 184.845,244.883 184.747 C 242.546 184.574,242.617 183.956,245.001 183.721 L 246.730 183.550 244.657 183.385 C 241.043 183.099,239.832 184.165,236.061 190.948 C 227.091 207.083,217.594 211.764,201.862 207.802 C 194.059 205.837,190.750 206.878,190.750 211.297 C 190.750 218.639,201.630 226.025,220.349 231.389 C 248.488 239.453,266.186 240.165,283.094 233.913 C 291.160 230.931,297.455 225.483,295.069 223.551 C 293.503 222.283,291.314 222.786,279.531 227.121 C 264.042 232.819,256.414 233.848,244.179 231.889 C 230.855 229.756,212.761 223.130,202.392 216.587 C 199.789 214.944,198.983 214.586,198.006 214.637 C 196.574 214.711,196.533 214.502,197.706 213.097 C 198.878 211.694,201.110 211.441,203.987 212.386 C 205.791 212.978,205.837 213.018,204.785 213.069 C 202.288 213.190,202.293 213.517,204.812 214.892 C 212.742 219.220,226.976 224.547,237.002 226.940 C 253.506 230.879,262.112 230.094,280.542 222.967 C 298.306 216.098,308.453 214.666,308.453 219.029 C 308.453 220.020,309.043 219.973,310.579 218.861 C 313.108 217.029,314.870 214.110,314.787 211.892 L 314.742 210.686 314.538 211.962 C 314.371 213.011,314.293 213.119,314.099 212.570 C 312.302 207.462,297.333 209.429,277.670 217.358 C 276.111 217.987,274.690 218.501,274.512 218.501 C 273.684 218.501,292.475 209.499,294.182 209.078 C 297.124 208.352,295.120 208.137,291.099 208.747 C 280.239 210.395,268.701 202.456,261.730 188.537 C 260.725 186.531,259.541 184.604,259.098 184.256 C 258.369 183.682,258.343 183.586,258.821 183.237 C 259.297 182.889,259.299 182.831,258.844 182.657 C 258.536 182.539,258.421 182.594,258.548 182.800 M244.103 183.004 C 244.588 183.077,245.306 183.075,245.698 183.000 C 246.090 182.924,245.694 182.864,244.817 182.866 C 243.939 182.869,243.618 182.931,244.103 183.004 M260.746 183.174 C 260.951 184.161,261.342 184.642,261.903 184.600 C 262.449 184.559,262.425 184.465,261.658 183.665 C 260.690 182.655,260.631 182.623,260.746 183.174 M248.527 184.492 C 247.880 184.851,247.848 184.940,248.304 185.115 C 248.660 185.252,248.761 185.197,248.609 184.950 C 248.455 184.701,248.559 184.649,248.928 184.791 C 249.296 184.932,249.400 184.880,249.247 184.631 C 249.093 184.382,249.197 184.330,249.566 184.472 C 249.891 184.596,250.034 184.554,249.918 184.366 C 249.668 183.961,249.450 183.981,248.527 184.492 M248.140 195.043 C 249.998 196.003,253.804 201.167,253.142 201.828 C 252.601 202.369,245.696 198.425,245.143 197.258 C 244.078 195.014,245.727 193.795,248.140 195.043 M271.132 197.289 C 271.728 197.903,272.286 198.405,272.374 198.405 C 272.462 198.405,272.047 197.903,271.451 197.289 C 270.856 196.675,270.298 196.172,270.210 196.172 C 270.122 196.172,270.537 196.675,271.132 197.289 M292.743 207.881 C 293.138 207.957,293.784 207.957,294.179 207.881 C 294.573 207.805,294.250 207.742,293.461 207.742 C 292.671 207.742,292.348 207.805,292.743 207.881 ">
      </path>
    </g>
  </g>

  <g fill="#EAF6FD">
    <text x="330" y="80" font-size="34" font-weight="700" font-family="Avenir Next, Avenir, Segoe UI, Helvetica Neue, Arial, sans-serif" letter-spacing="0.12em">
      GUIDED CODE FLOWS
    </text>
    <text x="330" y="160" font-size="88" font-weight="800" font-family="Avenir Next, Avenir, Segoe UI, Helvetica Neue, Arial, sans-serif">
      Duck Walk
    </text>
  </g>

  <rect x="330" y="180" width="500" height="10" rx="5" fill="url(#accent)"/>
  
  <text x="330" y="230" fill="#A9C5D8" font-size="28" font-weight="500" font-family="Avenir Next, Avenir, Segoe UI, Helvetica Neue, Arial, sans-serif">
    VS-Code extension and MCP
  </text>
  <text x="330" y="270" fill="#A9C5D8" font-size="28" font-weight="500" font-family="Avenir Next, Avenir, Segoe UI, Helvetica Neue, Arial, sans-serif">
    Implementation, Review, and Pathfinding
  </text>
</svg>
